<?xml version="1.0" encoding="UTF-8"?>
<svg version="1.1" xmlns="http://www.w3.org/2000/svg" width="454" height="391">
<path d="M0 0 C-2.91121103 6.42137936 -8.35994192 10.53452454 -13.80859375 14.8125 C-20.67204245 20.40213094 -26.90853327 26.57187412 -33.15283203 32.8371582 C-35.1201799 34.80767215 -37.10052598 36.7644384 -39.08203125 38.72070312 C-46.46448097 46.06607865 -53.00201864 53.46356767 -59 62 C-60.08461221 63.45995869 -61.17282568 64.91725309 -62.265625 66.37109375 C-72.11333392 79.72118003 -80.91325316 93.67860788 -89.0625 108.125 C-96.49687302 121.29983827 -104.52267788 134.19008116 -114 146 C-114.90492188 147.13501953 -114.90492188 147.13501953 -115.828125 148.29296875 C-125.68694975 160.12799936 -140.6226639 169.20948826 -156 171 C-165.87057299 171.67739226 -173.14142741 170.68870161 -183 168 C-183.33 183.51 -183.66 199.02 -184 215 C-184.66 215 -185.32 215 -186 215 C-189.72888124 207.97605256 -192.68186019 200.89631622 -195.25 193.375 C-195.63349609 192.26253906 -196.01699219 191.15007812 -196.41210938 190.00390625 C-199.42670567 181.08306175 -202.01025681 172.07665273 -204.5 163 C-209.97205176 143.08629685 -215.62365773 122.99009426 -226 105 C-226.42087891 104.25733887 -226.84175781 103.51467773 -227.27539062 102.74951172 C-245.41835113 71.14208661 -273.30651604 50.73187913 -307 38.125 C-307.76473633 37.83858643 -308.52947266 37.55217285 -309.31738281 37.25708008 C-314.47073281 35.39378204 -319.62642853 34.06550427 -325 33 C-325 36.18526196 -322.90186655 38.42185234 -321.1875 41 C-308.67096755 60.16850187 -297.23979517 80.02721323 -285.61328125 99.7421875 C-279.38844654 110.29470117 -273.12270089 120.82097496 -266.80322266 131.31713867 C-263.47815399 136.84599227 -260.17623543 142.38701009 -256.9140625 147.953125 C-249.31674437 160.90599253 -241.56065377 173.65781928 -233 186 C-232.57557617 186.62116699 -232.15115234 187.24233398 -231.71386719 187.88232422 C-221.62042089 202.64487447 -210.24130986 216.57545665 -195.9375 227.4375 C-195.19653076 228.00025635 -194.45556152 228.5630127 -193.69213867 229.14282227 C-170.92174086 246.14436139 -146.16834571 254.18312788 -117.84765625 251.7265625 C-115.1674899 251.29934801 -112.61835285 250.71478023 -110 250 C-108.8553125 249.69320312 -107.710625 249.38640625 -106.53125 249.0703125 C-87.55150132 243.38423077 -72.13425265 232.23741463 -62 215 C-61.50113281 214.22269531 -61.00226563 213.44539062 -60.48828125 212.64453125 C-42.36951799 183.93747309 -39.13710277 143.67738251 -45.60742188 110.92529297 C-47.80032862 101.6085454 -50.61712702 92.54084461 -55.3125 84.15625 C-56 82 -56 82 -55.32421875 79.4921875 C-52.24352539 73.69430442 -47.78855505 68.70383485 -43.375 63.875 C-42.58222656 63.00488281 -42.58222656 63.00488281 -41.7734375 62.1171875 C-40 61 -40 61 -37.5546875 61.0859375 C-26.1942138 65.15069414 -17.3455635 82.0697411 -12.41015625 92.44921875 C0.81470623 125.74949573 0.7105755 163.83669414 -12.84521484 197.07226562 C-16.31715254 204.97295861 -20.78007241 212.14085238 -26 219 C-26.58910156 219.78117188 -27.17820312 220.56234375 -27.78515625 221.3671875 C-29.49626389 223.60102913 -31.24426046 225.80118468 -33 228 C-33.4228125 228.57105469 -33.845625 229.14210938 -34.28125 229.73046875 C-52.32137472 252.88562884 -86.04023217 265.11197737 -114.0859375 268.69921875 C-115.04757812 268.79847656 -116.00921875 268.89773438 -117 269 C-118.50433594 269.16435547 -118.50433594 269.16435547 -120.0390625 269.33203125 C-148.21134453 271.95352151 -179.63512772 269.44121437 -205 256 C-206.28814744 255.36792339 -207.57729998 254.73789299 -208.8671875 254.109375 C-219.47995914 248.83342967 -228.79337488 242.44074631 -238 235 C-238.8353125 234.32710937 -239.670625 233.65421875 -240.53125 232.9609375 C-244.39526515 229.70624782 -247.79008999 226.1826471 -251.04296875 222.3203125 C-252.47442967 220.6231313 -253.94051316 218.95498538 -255.42578125 217.3046875 C-268.27734951 202.88938521 -277.72461957 186.00569965 -287.328125 169.34375 C-291.17648772 162.67048103 -295.11883386 156.05473426 -299.0625 149.4375 C-305.18745985 139.13836826 -311.14129087 128.75438215 -317.01171875 118.30859375 C-323.1500908 107.38702386 -329.46070133 96.57012399 -335.875 85.80859375 C-336.52044266 84.72494286 -336.52044266 84.72494286 -337.17892456 83.61940002 C-339.35353967 79.96908282 -341.53155571 76.32086964 -343.71533203 72.67602539 C-344.52125269 71.3257396 -345.32708352 69.97540018 -346.1328125 68.625 C-346.69609253 67.68877052 -346.69609253 67.68877052 -347.27075195 66.73362732 C-348.79786049 64.16874875 -350.05226033 61.843219 -351 59 C-351.66 59 -352.32 59 -353 59 C-352.91560261 78.51702015 -352.8202934 98.03395911 -352.71247292 117.55086422 C-352.66264102 126.61567995 -352.61619849 135.68048795 -352.578125 144.74536133 C-352.54487835 152.65886908 -352.50487536 160.572311 -352.45720994 168.48574549 C-352.43226434 172.66441736 -352.41039484 176.8430474 -352.39665604 181.02177238 C-354.76353309 220.70375497 -354.76353309 220.70375497 -341.859375 256.27734375 C-338.34310288 259.53506645 -334.22987436 261.79310903 -330 264 C-330.33 265.32 -330.66 266.64 -331 268 C-350.8 268 -370.6 268 -391 268 C-390.67 266.35 -390.34 264.7 -390 263 C-388.32169029 262.012759 -386.63633557 261.03402984 -384.90625 260.140625 C-378.20818904 256.13276885 -375.20066383 249.18081743 -373 242 C-371.39454518 234.43920335 -370.63511918 226.91635482 -370.38989258 219.20263672 C-370.3525063 218.14987989 -370.31512003 217.09712307 -370.27660084 216.01246452 C-369.74802122 199.26802853 -369.79325199 182.50883549 -369.76171875 165.7578125 C-369.75765748 163.90035871 -369.75354023 162.04290505 -369.74936867 160.18545151 C-369.73045075 151.4764875 -369.71617426 142.76753142 -369.7077567 134.05855095 C-369.69793338 124.06916345 -369.67142619 114.07999447 -369.63125581 104.09068406 C-369.60106112 96.31172672 -369.58628601 88.53283222 -369.58297569 80.75381744 C-369.58063602 76.1298466 -369.57181149 71.50611303 -369.54651451 66.88220596 C-369.52315872 62.54638709 -369.51903042 58.21096098 -369.52927589 53.87509537 C-369.52976895 52.29292488 -369.52351686 50.71073437 -369.50971985 49.12862396 C-369.37710891 33.01311498 -373.37253497 21.83639225 -384.7421875 10.19140625 C-386.5053364 8.47071278 -388.28764206 6.76929592 -390.09375 5.09375 C-392 3 -392 3 -392 0 C-334.95018941 -1.16623473 -274.62064893 13.66268874 -232.3125 54.1875 C-216.0541609 71.179298 -204.0987911 91.42442349 -195 113 C-194.55011719 112.06542969 -194.10023438 111.13085938 -193.63671875 110.16796875 C-169.9094811 61.4623752 -135.28641034 30.15620249 -84 12 C-59.42067234 3.55550753 -25.94283988 -4.44066629 0 0 Z M-125 60 C-125.96292969 60.69867188 -126.92585938 61.39734375 -127.91796875 62.1171875 C-152.7655331 81.1577694 -173.89311906 111.39281101 -179.4609375 142.58203125 C-179.69419365 144.38188612 -179.85809019 146.19064996 -180 148 C-173.83411865 151.77811357 -165.54436153 150.70717847 -158.73046875 149.34765625 C-136.20195144 142.60934491 -124.73038523 117.93468757 -113.7800293 98.99072266 C-110.6367674 93.59430882 -107.28561702 88.4470715 -103.66064453 83.36230469 C-101.69025184 80.55937618 -99.85682888 77.68687509 -98.03271484 74.78759766 C-92.5434531 66.06788344 -86.539219 57.95422319 -80 50 C-79.36070557 49.22221191 -79.36070557 49.22221191 -78.70849609 48.42871094 C-76.76760261 46.07013778 -74.82555272 43.71252095 -72.8828125 41.35546875 C-70.73063841 38.66301859 -68.81842582 35.92529371 -67 33 C-87.01457718 33 -109.49592531 48.74142979 -125 60 Z " fill="#B69659" transform="translate(419,96)"/>
<path d="M0 0 C3.62653123 0.55964072 5.05402956 1.78787439 7.37109375 4.58203125 C7.97679199 5.30729004 8.58249023 6.03254883 9.20654297 6.77978516 C10.0943042 7.8787915 10.0943042 7.8787915 11 9 C11.51320801 9.63083496 12.02641602 10.26166992 12.55517578 10.91162109 C30.25897876 33.04283505 47.53347209 57.70222674 56 85 C56.41378906 86.06476563 56.82757813 87.12953125 57.25390625 88.2265625 C58.29569651 91.60039373 58.73102133 93.53233474 58 97 C54.98643537 101.30882291 50.80953911 104.57987025 46.65185547 107.734375 C45.13590505 108.89587175 43.69026021 110.1476525 42.25390625 111.40625 C41.13822266 112.19515625 41.13822266 112.19515625 40 113 C38.515 112.505 38.515 112.505 37 112 C36.12792969 110.02905273 36.12792969 110.02905273 35.421875 107.43359375 C35.15189697 106.480896 34.88191895 105.52819824 34.60375977 104.54663086 C34.32201904 103.52061768 34.04027832 102.49460449 33.75 101.4375 C27.5512048 80.06558365 17.48049619 62.30318121 5 44 C4.34 43.01 3.68 42.02 3 41 C-1.23484505 42.41161502 -2.73647713 45.49960624 -5.125 49.0625 C-5.85251465 50.13636963 -5.85251465 50.13636963 -6.59472656 51.23193359 C-11.10983006 57.99276146 -15.17037053 64.95813688 -18.99316406 72.12988281 C-19.92419514 73.85919853 -20.89407931 75.56744448 -21.8671875 77.2734375 C-27.81733297 88.19526007 -30.79243145 100.04491905 -34 112 C-38.06934071 112 -39.23867327 110.41866292 -42.3125 107.8125 C-43.77236328 106.57886719 -43.77236328 106.57886719 -45.26171875 105.3203125 C-46.61716797 104.17175781 -46.61716797 104.17175781 -48 103 C-49.20733813 102.0612187 -50.41541441 101.12338374 -51.625 100.1875 C-54.12903496 97.88115201 -54.53935266 97.23133337 -55 94 C-54.34108521 91.2599878 -53.60191842 88.71661383 -52.6875 86.0625 C-52.2857959 84.88518311 -52.2857959 84.88518311 -51.87597656 83.68408203 C-46.50399375 68.51314945 -39.14374939 54.29187261 -30.25878906 40.8984375 C-28.96801823 38.95176682 -27.69788927 36.99268412 -26.4296875 35.03125 C-21.65156151 27.69247086 -16.61897631 20.72755578 -11 14 C-9.3732712 12.02225403 -7.74829014 10.04306931 -6.125 8.0625 C-5.38507813 7.16660156 -4.64515625 6.27070313 -3.8828125 5.34765625 C-1.90225342 2.94854152 -1.90225342 2.94854152 0 0 Z " fill="#C8AB6D" transform="translate(222,19)"/>
<path d="M0 0 C0.66 0 1.32 0 2 0 C6 6.5 6 6.5 6 11 C6.66 11 7.32 11 8 11 C9.51464172 16.4107204 10.25186767 21.11447839 10.26069641 26.77484131 C10.26452196 27.51485547 10.26834751 28.25486964 10.27228898 29.01730847 C10.28253327 31.47482929 10.27864312 33.93211269 10.2746582 36.38964844 C10.27900981 38.16131301 10.28419446 39.9329757 10.29014587 41.70463562 C10.30350873 46.50495975 10.30411684 51.30520499 10.30158257 56.10554409 C10.30050956 60.12781312 10.30540542 64.15006641 10.310188 68.17233205 C10.32127695 77.67853941 10.32172608 87.18470727 10.31567383 96.69091797 C10.30965397 106.45189526 10.32189572 116.21272768 10.3432439 125.97368026 C10.36095654 134.38598342 10.36684556 142.79824091 10.36360615 151.21056199 C10.36180615 156.22010372 10.36429826 161.22954245 10.37832069 166.23906708 C10.39105007 170.96369608 10.38881485 175.68810302 10.37590981 180.41272926 C10.37357573 182.12977237 10.37616205 183.84683184 10.38453293 185.56385612 C10.44031368 197.91425607 9.362172 209.86190075 7 222 C6.67 222.33 6.34 222.66 6 223 C5.75650989 225.51606449 5.61636634 228.03086024 5.4765625 230.5546875 C4.93328358 233.34233179 4.21680536 234.28339687 2 236 C1.67 236 1.34 236 1 236 C1.14049518 234.52031676 1.28754826 233.04125484 1.4375 231.5625 C1.51871094 230.73878906 1.59992187 229.91507813 1.68359375 229.06640625 C2 227 2 227 3 226 C3.22984278 223.5201302 3.39657944 221.06318921 3.52210999 218.57727051 C3.5641601 217.80193561 3.60621022 217.0266007 3.64953458 216.22777081 C3.78630997 213.64238205 3.91387982 211.05666631 4.03930664 208.47070312 C4.0835861 207.57617463 4.12786556 206.68164614 4.17348683 205.76001072 C5.10865007 186.55382617 5.3443797 167.36922228 5.36744571 148.14320183 C5.37116781 145.41445538 5.37744286 142.68572537 5.3844471 139.95698547 C5.40861902 130.38114664 5.42193331 120.80535994 5.42553711 111.22949219 C5.42920379 102.38107986 5.4594034 93.53300747 5.50094169 84.68469954 C5.5357472 76.99452298 5.55108688 69.30445957 5.55178314 61.61420488 C5.55256887 57.06011627 5.56098839 52.50638238 5.58978081 47.95237732 C5.61615922 43.69012899 5.61805825 39.42852655 5.60212517 35.16623306 C5.60032958 33.61840005 5.60682705 32.07052771 5.62294388 30.52277756 C5.73051578 19.51095164 3.80917805 10.33306155 0 0 Z " fill="#A79366" transform="translate(44,115)"/>
<path d="M0 0 C-2.91121103 6.42137936 -8.35994192 10.53452454 -13.80859375 14.8125 C-20.67204245 20.40213094 -26.90853327 26.57187412 -33.15283203 32.8371582 C-35.1201799 34.80767215 -37.10052598 36.7644384 -39.08203125 38.72070312 C-46.46448097 46.06607865 -53.00201864 53.46356767 -59 62 C-60.08461221 63.45995869 -61.17282568 64.91725309 -62.265625 66.37109375 C-70.49401061 77.52893577 -77.86089034 89.12089873 -85 101 C-85.61617188 102.02480469 -86.23234375 103.04960937 -86.8671875 104.10546875 C-87.42792969 105.04326172 -87.42792969 105.04326172 -88 106 C-89.31081051 103.37837897 -88.69646629 101.8456042 -87.86328125 99.125 C-86.10619195 94.79985711 -83.47019267 90.94474646 -81 87 C-79.64497117 84.67827377 -78.32278948 82.34031985 -77 80 C-76.34 80 -75.68 80 -75 80 C-74.731875 79.278125 -74.46375 78.55625 -74.1875 77.8125 C-73.00098638 75.00233617 -71.72514361 72.51583443 -70 70 C-69.34 70 -68.68 70 -68 70 C-67.731875 69.278125 -67.46375 68.55625 -67.1875 67.8125 C-66.00098638 65.00233617 -64.72514361 62.51583443 -63 60 C-62.34 60 -61.68 60 -61 60 C-60.71125 59.4225 -60.4225 58.845 -60.125 58.25 C-59.75375 57.5075 -59.3825 56.765 -59 56 C-58.731875 55.360625 -58.46375 54.72125 -58.1875 54.0625 C-56.55736573 51.23121417 -54.33367023 49.27939883 -52 47 C-51.0935705 45.9045152 -50.19753541 44.80034038 -49.3125 43.6875 C-48.549375 42.800625 -47.78625 41.91375 -47 41 C-46.34 41 -45.68 41 -45 41 C-45 40.34 -45 39.68 -45 39 C-44.34 39 -43.68 39 -43 39 C-42.773125 38.4225 -42.54625 37.845 -42.3125 37.25 C-40.67083893 34.43572387 -38.56440947 32.97262267 -36 31 C-35.67 30.34 -35.34 29.68 -35 29 C-34.34 29 -33.68 29 -33 29 C-33 28.34 -33 27.68 -33 27 C-31.35648543 25.63823078 -29.68477344 24.31037934 -28 23 C-27.278125 22.2575 -26.55625 21.515 -25.8125 20.75 C-22.53460334 17.54494548 -19.01764555 14.77798306 -15.40234375 11.96484375 C-12.96881022 10.04169652 -12.96881022 10.04169652 -10.828125 7.82421875 C-8.97592473 5.97597617 -7.33026027 5.12495324 -5 4 C-4.67 3.34 -4.34 2.68 -4 2 C-4.99 2.33 -5.98 2.66 -7 3 C-9.04118701 3.04425338 -11.08371258 3.03935012 -13.125 3 C-15.08297305 2.96243697 -17.04222483 2.95324716 -19 3 C-19.33 3.33 -19.66 3.66 -20 4 C-22.7835375 4.03173414 -25.55391063 3.93159925 -28.3359375 3.83984375 C-31.22973626 3.78932357 -31.22973626 3.78932357 -34 6 C-34.804375 5.835 -35.60875 5.67 -36.4375 5.5 C-39.54934286 4.89281115 -40.26173991 5.58938117 -43 7 C-48.35714286 7.32142857 -48.35714286 7.32142857 -51 6 C-51 6.66 -51 7.32 -51 8 C-53.68660783 8.64974205 -56.37418674 9.29488418 -59.0625 9.9375 C-59.81466797 10.11990234 -60.56683594 10.30230469 -61.34179688 10.49023438 C-64.82033461 11.31845764 -68.20526672 12.02798121 -71.75390625 12.51171875 C-74.77401491 12.96600706 -77.08991457 13.66531643 -79.875 14.875 C-83.09716687 16.23221574 -86.28912745 17.4532262 -89.625 18.5 C-92.72101034 19.49534258 -95.54428917 20.70179714 -98.4375 22.1875 C-102 24 -102 24 -104 24 C-105.54278761 24.15594965 -107.08437905 24.32392903 -108.625 24.5 C-109.85089844 24.63921875 -109.85089844 24.63921875 -111.1015625 24.78125 C-111.72804688 24.8534375 -112.35453125 24.925625 -113 25 C-88.30764907 4.99105383 -30.60878452 -5.23934149 0 0 Z " fill="#DECDA0" transform="translate(419,96)"/>
<path d="M0 0 C0.33 0 0.66 0 1 0 C1.33 60.39 1.66 120.78 2 183 C1.67 183 1.34 183 1 183 C-0.58404014 174.01880882 -1.39388327 165.23691266 -1.625 156.125 C-1.66294678 154.82594727 -1.70089355 153.52689453 -1.73999023 152.18847656 C-2.17948302 135.93990384 -2.09162838 119.68152862 -2.01586914 103.42871094 C-1.99815843 99.60210833 -2.00311646 95.77605598 -2.01586914 91.94946289 C-2.03384312 86.22518446 -2.04541335 80.50090961 -2.05493164 74.77661133 C-2.05997357 72.30232317 -2.06680692 69.828038 -2.07543945 67.35375977 C-2.08755163 63.78921782 -2.09323749 60.22471499 -2.09765625 56.66015625 C-2.10539818 54.99908592 -2.10539818 54.99908592 -2.11329651 53.30445862 C-2.11337204 52.27336472 -2.11344757 51.24227081 -2.11352539 50.17993164 C-2.115746 49.27408829 -2.11796661 48.36824493 -2.12025452 47.43495178 C-2.00693463 45.14041463 -1.58663919 43.20997049 -1 41 C-1.09442284 39.32373708 -1.25413887 37.65051046 -1.4609375 35.984375 C-2.07758517 30.01617733 -1.94197078 24.23282346 -1.625 18.25 C-1.58117188 17.26128906 -1.53734375 16.27257812 -1.4921875 15.25390625 C-1.24492205 10.10941116 -0.83760222 5.08239991 0 0 Z " fill="#937945" transform="translate(64,152)"/>
<path d="M0 0 C2.21302239 3.31953359 2.75349568 5.73669652 3.5625 9.625 C3.81128906 10.79289063 4.06007813 11.96078125 4.31640625 13.1640625 C10.00163423 45.0663132 5.02527972 81.24984305 -13.5 108.3125 C-14.65260277 109.88540311 -15.81908489 111.44824072 -17 113 C-17.88365234 114.17175781 -17.88365234 114.17175781 -18.78515625 115.3671875 C-22.3714423 120.04906423 -26.12356133 124.55627762 -30 129 C-30.66 128.67 -31.32 128.34 -32 128 C-31.319375 127.4121875 -31.319375 127.4121875 -30.625 126.8125 C-28.7022858 124.66793416 -28.0222218 122.68333223 -27 120 C-25.5 117.1875 -25.5 117.1875 -24 115 C-23.34 115 -22.68 115 -22 115 C-21.67 113.68 -21.34 112.36 -21 111 C-20.34 111 -19.68 111 -19 111 C-18.896875 110.401875 -18.79375 109.80375 -18.6875 109.1875 C-18 107 -18 107 -16.65625 105.71875 C-14.50139189 103.48257649 -13.26322321 101.05275496 -11.8125 98.3125 C-11.28269531 97.31863281 -10.75289063 96.32476562 -10.20703125 95.30078125 C-9.80871094 94.54152344 -9.41039062 93.78226562 -9 93 C-8.34 93 -7.68 93 -7 93 C-7.33 92.01 -7.66 91.02 -8 90 C-7.01 90 -6.02 90 -5 90 C-5 89.34 -5 88.68 -5 88 C-5.66 87.67 -6.32 87.34 -7 87 C-6.72285156 86.3709375 -6.44570313 85.741875 -6.16015625 85.09375 C-3.85043271 79.63589792 -2.43791804 74.91189352 -2 69 C-0.515 68.505 -0.515 68.505 1 68 C0.814375 67.030625 0.62875 66.06125 0.4375 65.0625 C0.293125 64.051875 0.14875 63.04125 0 62 C0.33 61.67 0.66 61.34 1 61 C1.23481693 58.81707226 1.41363323 56.62796826 1.5625 54.4375 C1.64628906 53.23996094 1.73007812 52.04242188 1.81640625 50.80859375 C1.90728516 49.41833984 1.90728516 49.41833984 2 48 C2.66 48 3.32 48 4 48 C3.83701416 47.42475586 3.67402832 46.84951172 3.50610352 46.25683594 C3.00962472 44.04291893 2.88520256 42.15326203 2.90234375 39.890625 C2.90556641 39.13652344 2.90878906 38.38242188 2.91210938 37.60546875 C2.92467773 36.43951172 2.92467773 36.43951172 2.9375 35.25 C2.94201172 34.45722656 2.94652344 33.66445312 2.95117188 32.84765625 C2.96291435 30.89840492 2.98084854 28.94919262 3 27 C2.67 27 2.34 27 2 27 C0.72958023 17.95960217 -0.34915606 9.15564771 0 0 Z " fill="#D7C599" transform="translate(410,202)"/>
<path d="M0 0 C-0.52445253 3.74152107 -1.25655523 5.7250919 -3.875 8.4375 C-6.30556272 11.0538702 -8.58013735 13.7134165 -10.734375 16.55859375 C-11.21148926 17.18644775 -11.68860352 17.81430176 -12.18017578 18.46118164 C-13.12942768 19.71856347 -14.07079337 20.98194539 -15.00341797 22.25170898 C-17.67104992 25.75750491 -19.69702665 27.83493501 -24 29 C-22.65784868 26.10240975 -21.12982822 23.74740787 -19.1015625 21.28515625 C-18.53953125 20.59873047 -17.9775 19.91230469 -17.3984375 19.20507812 C-16.81320312 18.49802734 -16.22796875 17.79097656 -15.625 17.0625 C-14.47124155 15.65764456 -13.31759316 14.25269873 -12.1640625 12.84765625 C-11.34856934 11.85789795 -11.34856934 11.85789795 -10.51660156 10.84814453 C-8.65691232 8.58191021 -6.82365973 6.29529586 -5 4 C-16.92534472 5.75505073 -27.20244943 10.93773768 -37.9597168 16.12963867 C-40 17 -40 17 -42 17 C-42.33 16.01 -42.66 15.02 -43 14 C-41.35 13.67 -39.7 13.34 -38 13 C-38 12.34 -38 11.68 -38 11 C-37.23816406 10.68546875 -36.47632813 10.3709375 -35.69140625 10.046875 C-34.65886719 9.61890625 -33.62632812 9.1909375 -32.5625 8.75 C-31.46679688 8.29625 -30.37109375 7.8425 -29.2421875 7.375 C-26.52478001 6.22255731 -23.85745436 5.00644911 -21.1875 3.75 C-17.46729413 2.07423159 -14.07086109 1.4523179 -10 1 C-8.7625 0.62875 -7.525 0.2575 -6.25 -0.125 C-3 -1 -3 -1 0 0 Z " fill="#D1BE90" transform="translate(356,126)"/>
<path d="M0 0 C0.66 0 1.32 0 2 0 C1.4863239 4.43341985 -0.02185233 6.61191944 -2.9375 9.9375 C-16.71063099 26.23063603 -28.2576563 44.60780549 -39 63 C-40.31081051 60.37837897 -39.69646629 58.8456042 -38.86328125 56.125 C-37.10619195 51.79985711 -34.47019267 47.94474646 -32 44 C-30.64497117 41.67827377 -29.32278948 39.34031985 -28 37 C-27.34 37 -26.68 37 -26 37 C-25.5978125 35.9171875 -25.5978125 35.9171875 -25.1875 34.8125 C-24.00098638 32.00233617 -22.72514361 29.51583443 -21 27 C-20.34 27 -19.68 27 -19 27 C-18.731875 26.278125 -18.46375 25.55625 -18.1875 24.8125 C-17.00098638 22.00233617 -15.72514361 19.51583443 -14 17 C-13.34 17 -12.68 17 -12 17 C-11.71125 16.4225 -11.4225 15.845 -11.125 15.25 C-10.75375 14.5075 -10.3825 13.765 -10 13 C-9.731875 12.360625 -9.46375 11.72125 -9.1875 11.0625 C-7.56116282 8.23780912 -5.32598492 6.26925358 -3 4 C-2.443125 3.236875 -1.88625 2.47375 -1.3125 1.6875 C-0.879375 1.130625 -0.44625 0.57375 0 0 Z " fill="#D1C093" transform="translate(370,139)"/>
<path d="M0 0 C0.33 0.66 0.66 1.32 1 2 C0.67 2.99 0.34 3.98 0 5 C0.99 4.67 1.98 4.34 3 4 C3.27972656 4.87269531 3.55945313 5.74539062 3.84765625 6.64453125 C4.92209143 9.9230567 4.92209143 9.9230567 6.18359375 12.69921875 C17.45782803 39.56772101 15.7448276 76.99448272 9 105 C8.34 105 7.68 105 7 105 C7.42247156 101.40899172 7.85301947 97.83971664 8.4765625 94.27734375 C13.37805197 65.92917702 13.06804579 32.83579605 -1.3125 7.15625 C-2.25622597 4.19638217 -1.36868974 2.69936032 0 0 Z " fill="#E1D5AD" transform="translate(365,173)"/>
<path d="M0 0 C0.66 0 1.32 0 2 0 C3.6875 2.375 3.6875 2.375 5 5 C4.67 5.66 4.34 6.32 4 7 C3.67 6.01 3.34 5.02 3 4 C2.34 4 1.68 4 1 4 C1.33 59.77 1.66 115.54 2 173 C-0.44945876 169.32581186 -0.24696768 167.56756939 -0.24050903 163.18537903 C-0.24221788 162.48861185 -0.24392673 161.79184468 -0.24568737 161.07396334 C-0.24898766 158.73385672 -0.23796987 156.39403538 -0.22705078 154.05395508 C-0.22648678 152.37865709 -0.226803 150.70335861 -0.22793579 149.02806091 C-0.22851075 144.47462166 -0.2167333 139.9212873 -0.20278788 135.36787248 C-0.19030435 130.61127644 -0.1891119 125.85467813 -0.18673706 121.09806824 C-0.18051529 112.08832282 -0.16409505 103.0786258 -0.14403808 94.06890172 C-0.12170075 83.81268582 -0.11069111 73.55646764 -0.10064721 63.30023348 C-0.07972943 42.20012861 -0.04453992 21.10006735 0 0 Z " fill="#C4B48F" transform="translate(65,151)"/>
<path d="M0 0 C10.1670093 3.16406927 17.56038174 17.26835774 22.4765625 26.11328125 C28.96652505 38.80966429 28.96652505 38.80966429 28.2734375 43.19921875 C28.0671875 43.73546875 27.8609375 44.27171875 27.6484375 44.82421875 C25.30428405 41.30798858 24.50885131 38.05077055 23.4296875 34.00390625 C22.86786362 31.64597948 22.86786362 31.64597948 20.6484375 30.82421875 C20.05337751 28.77897554 19.69376969 26.73087918 19.30859375 24.63671875 C19.09074219 24.03859375 18.87289062 23.44046875 18.6484375 22.82421875 C17.6584375 22.49421875 16.6684375 22.16421875 15.6484375 21.82421875 C13.02728197 18.9717848 11.22312675 16.70337119 10.6484375 12.82421875 C9.9884375 12.82421875 9.3284375 12.82421875 8.6484375 12.82421875 C3.6484375 7.46707589 3.6484375 7.46707589 3.6484375 3.82421875 C-1.63581518 4.98417666 -4.04902153 7.33472617 -7.60546875 11.13671875 C-9.91059727 13.36449397 -12.40836131 14.60386704 -15.3515625 15.82421875 C-13.20883319 11.07202701 -9.82227944 7.64669755 -6.3515625 3.82421875 C-5.6503125 2.97859375 -4.9490625 2.13296875 -4.2265625 1.26171875 C-2.3515625 -0.17578125 -2.3515625 -0.17578125 0 0 Z " fill="#D5C599" transform="translate(381.3515625,157.17578125)"/>
<path d="M0 0 C0.33 0 0.66 0 1 0 C1.99259076 11.21627563 2.23750369 22.37135338 2.25 33.625 C2.25200409 34.50519806 2.25400818 35.38539612 2.256073 36.29226685 C2.26316567 49.00682916 2.05311837 61.58187607 -1 74 C-1.495 74.495 -1.495 74.495 -2 75 C-2.24349011 77.51606449 -2.38363366 80.03086024 -2.5234375 82.5546875 C-3.06671642 85.34233179 -3.78319464 86.28339687 -6 88 C-6.33 88 -6.66 88 -7 88 C-6.85950482 86.52031676 -6.71245174 85.04125484 -6.5625 83.5625 C-6.48128906 82.73878906 -6.40007813 81.91507812 -6.31640625 81.06640625 C-6 79 -6 79 -5 78 C-4.44196289 75.18858479 -3.95103835 72.39153756 -3.5 69.5625 C-3.36980469 68.81162109 -3.23960938 68.06074219 -3.10546875 67.28710938 C-0.57539754 51.53166594 -0.78372454 35.29284992 -0.4375 19.375 C-0.39414718 17.4817647 -0.35052868 15.58853547 -0.30664062 13.6953125 C-0.20137908 9.1302721 -0.09966072 4.56516597 0 0 Z " fill="#8B6F39" transform="translate(52,263)"/>
<path d="M0 0 C1.98 0 3.96 0 6 0 C3.39952228 2.1072011 0.77945012 4.16341414 -1.91015625 6.15625 C-15.59615309 16.33171234 -27.94270516 28.42956917 -37 43 C-37.66 41.68 -38.32 40.36 -39 39 C-38.01 38.505 -38.01 38.505 -37 38 C-36.34786708 35.97536745 -36.34786708 35.97536745 -36 34 C-35.01 34 -34.02 34 -33 34 C-32.9175 33.2575 -32.835 32.515 -32.75 31.75 C-31.85190201 28.45697405 -30.61583926 27.14023212 -28 25 C-27.34 25 -26.68 25 -26 25 C-25.731875 24.41734375 -25.46375 23.8346875 -25.1875 23.234375 C-23.98519009 20.97213399 -22.66174087 19.19423682 -21 17.25 C-20.484375 16.63640625 -19.96875 16.0228125 -19.4375 15.390625 C-18 14 -18 14 -16 14 C-15.79375 13.4225 -15.5875 12.845 -15.375 12.25 C-13.48374778 9.15522364 -11.09964063 7.8081237 -8 6 C-7.34 6 -6.68 6 -6 6 C-5.67 5.01 -5.34 4.02 -5 3 C-2.4375 1.8125 -2.4375 1.8125 0 1 C0 0.67 0 0.34 0 0 Z " fill="#C4B083" transform="translate(297,150)"/>
<path d="M0 0 C4.00186193 -0.02489435 8.00369328 -0.04295127 12.00561523 -0.05493164 C13.36434719 -0.05993113 14.72307385 -0.06673291 16.08178711 -0.07543945 C18.04538585 -0.08769842 20.00902541 -0.09273487 21.97265625 -0.09765625 C23.15093994 -0.10289307 24.32922363 -0.10812988 25.54321289 -0.11352539 C29.09357576 0.00307315 32.49542884 0.4344941 36 1 C34.33906033 2.99957786 33.35663768 3.91131567 30.80078125 4.546875 C25.31811928 4.99443924 20.433343 4.85789626 15 4 C14.01 4 13.02 4 12 4 C10.68 4 9.36 4 8 4 C7.67 4.66 7.34 5.32 7 6 C7.66 6 8.32 6 9 6 C14 11.47619048 14 11.47619048 14 14 C9.74689068 13.50314143 7.67968742 11.08038643 4.75 8.125 C3.85796875 7.24070312 2.9659375 6.35640625 2.046875 5.4453125 C0 3 0 3 0 0 Z " fill="#B8A77E" transform="translate(27,96)"/>
<path d="M0 0 C0 0.66 0 1.32 0 2 C2.88085938 1.95117188 2.88085938 1.95117188 5.76171875 1.90234375 C8 2 8 2 10.28417969 2.49560547 C15.32526911 3.43185958 20.44949514 3.19032428 25.5625 3.1875 C26.76092529 3.18814453 27.95935059 3.18878906 29.1940918 3.18945312 C38.2097219 3.13660723 47.04388344 2.52375054 55.98828125 1.4375 C59.34222572 1.03373335 62.61796731 0.91397055 66 1 C65 3 65 3 63.296875 3.62109375 C60.57835155 4.06955765 58.00442923 4.09529082 55.25 4.0625 C54.26515625 4.05347656 53.2803125 4.04445313 52.265625 4.03515625 C51.51796875 4.02355469 50.7703125 4.01195312 50 4 C50 4.66 50 5.32 50 6 C44.77542094 6.0754997 39.55117561 6.12922164 34.32617188 6.16479492 C32.55756077 6.17966123 30.78898498 6.19996029 29.02050781 6.22631836 C16.67741823 6.40535635 5.10532703 5.44811333 -7 3 C-7 2.34 -7 1.68 -7 1 C-2.25 0 -2.25 0 0 0 Z " fill="#9C8451" transform="translate(250,358)"/>
<path d="M0 0 C0.33 0 0.66 0 1 0 C0.92375454 19.36634789 -13.88311716 35.1099148 -26 49 C-26.66 48.67 -27.32 48.34 -28 48 C-27.319375 47.4121875 -27.319375 47.4121875 -26.625 46.8125 C-24.7022858 44.66793416 -24.0222218 42.68333223 -23 40 C-21.5 37.1875 -21.5 37.1875 -20 35 C-19.34 35 -18.68 35 -18 35 C-17.67 33.68 -17.34 32.36 -17 31 C-16.34 31 -15.68 31 -15 31 C-14.896875 30.401875 -14.79375 29.80375 -14.6875 29.1875 C-14 27 -14 27 -12.65625 25.71875 C-10.50139189 23.48257649 -9.26322321 21.05275496 -7.8125 18.3125 C-7.28269531 17.31863281 -6.75289063 16.32476562 -6.20703125 15.30078125 C-5.80871094 14.54152344 -5.41039062 13.78226562 -5 13 C-4.34 13 -3.68 13 -3 13 C-3.33 12.01 -3.66 11.02 -4 10 C-3.01 10 -2.02 10 -1 10 C-1 9.34 -1 8.68 -1 8 C-1.66 7.67 -2.32 7.34 -3 7 C-2.01 4.69 -1.02 2.38 0 0 Z " fill="#C4B285" transform="translate(406,282)"/>
<path d="M0 0 C0 9.98931048 -8.89346527 20.4498286 -14.27734375 28.41796875 C-17.93043397 33.89346225 -21.45146378 39.45639787 -25 45 C-25.99 44.67 -26.98 44.34 -28 44 C-26.64869389 40.32835634 -24.98819965 37.20573487 -22.85546875 33.9296875 C-22.23333496 32.96901367 -21.61120117 32.00833984 -20.97021484 31.01855469 C-19.9949585 29.52437012 -19.9949585 29.52437012 -19 28 C-17.72519376 26.02348049 -16.45045422 24.04691796 -15.17578125 22.0703125 C-13.8886631 20.08812447 -12.60090059 18.1063547 -11.3125 16.125 C-10.66216797 15.11953125 -10.01183594 14.1140625 -9.34179688 13.078125 C-8.70951172 12.10617188 -8.07722656 11.13421875 -7.42578125 10.1328125 C-6.86286377 9.26543457 -6.29994629 8.39805664 -5.7199707 7.50439453 C-3.92900145 4.89662127 -2.00464586 2.44613383 0 0 Z " fill="#CDBB8E" transform="translate(331,155)"/>
<path d="M0 0 C0.495 0.99 0.495 0.99 1 2 C-1.34375 8.5625 -1.34375 8.5625 -5 11 C-5.70626239 12.98636298 -6.36893571 14.98848259 -7 17 C-9.02550378 20.79243261 -11.39259788 23.66313685 -14.4375 26.6875 C-15.19933594 27.45449219 -15.96117187 28.22148437 -16.74609375 29.01171875 C-20.12496337 31.99238536 -23.1256689 33.17115514 -27.5 34.0625 C-30.71432915 34.7234625 -30.71432915 34.7234625 -33.89550781 35.52294922 C-37.31015922 36.29698969 -40.76760998 36.10249211 -44.25 36.0625 C-44.99507812 36.05798828 -45.74015625 36.05347656 -46.5078125 36.04882812 C-48.3385764 36.03709246 -50.16929873 36.0191585 -52 36 C-52 35.67 -52 35.34 -52 35 C-51.12859375 34.97421875 -50.2571875 34.9484375 -49.359375 34.921875 C-35.17871666 34.24660556 -24.47601676 31.14397702 -14.7265625 20.5234375 C-9.25885668 14.04803163 -4.56640868 7.12956995 0 0 Z " fill="#C4B183" transform="translate(295,211)"/>
<path d="M0 0 C-0.99 1.485 -0.99 1.485 -2 3 C15.49 3 32.98 3 51 3 C50.01 2.01 49.02 1.02 48 0 C49.98 0.66 51.96 1.32 54 2 C53.67 3.32 53.34 4.64 53 6 C33.2 6 13.4 6 -7 6 C-6 1 -6 1 -4.0625 -0.375 C-2 -1 -2 -1 0 0 Z " fill="#BEAF90" transform="translate(35,358)"/>
<path d="M0 0 C1.61992917 0.24126605 3.23979447 0.48296705 4.859375 0.7265625 C6.34352223 0.91614335 7.8349504 1.05323509 9.328125 1.1484375 C14.58561182 1.51402433 16.2883076 2.17583207 20 6 C22.5954102 6.8832767 25.18750643 7.56250152 27.85546875 8.19140625 C28.56316406 8.45824219 29.27085937 8.72507813 30 9 C30.33 9.99 30.66 10.98 31 12 C32.051875 12.1546875 32.051875 12.1546875 33.125 12.3125 C36.39137647 13.09359003 39.0471852 14.42058743 42 16 C42 16.66 42 17.32 42 18 C42.5775 18.28875 43.155 18.5775 43.75 18.875 C45.83333333 19.91666667 47.91666667 20.95833333 50 22 C50 22.66 50 23.32 50 24 C50.66 24.33 51.32 24.66 52 25 C53.3703055 26.97485205 54.70672372 28.97386717 56 31 C52.26101583 29.37087118 49.40650606 26.99715402 46.25 24.4375 C33.65951277 14.57378638 19.851269 8.360291 4.92260742 2.81860352 C3 2 3 2 0 0 Z " fill="#B6A57A" transform="translate(108,132)"/>
<path d="M0 0 C0.33 0 0.66 0 1 0 C1.01030746 0.6704837 1.02061493 1.34096741 1.03123474 2.0317688 C1.14025805 9.07350561 1.2547651 16.11513876 1.37231445 23.15673828 C1.41535938 25.77715871 1.4570527 28.39760174 1.49731445 31.01806641 C1.55576278 34.80638409 1.61923357 38.59459117 1.68359375 42.3828125 C1.70866249 44.11182297 1.70866249 44.11182297 1.73423767 45.87576294 C1.85995436 52.93589279 2.22708026 59.94405832 2.78283691 66.98364258 C3.0454719 70.63159682 3.09981179 74.21844417 3.0625 77.875 C3.05347656 79.04804688 3.04445313 80.22109375 3.03515625 81.4296875 C3.02355469 82.27789062 3.01195313 83.12609375 3 84 C2.67 84 2.34 84 2 84 C0.41597655 75.01890349 -0.39445701 66.23687957 -0.625 57.125 C-0.68083252 55.17859619 -0.68083252 55.17859619 -0.73779297 53.19287109 C-1.04430261 41.67231842 -1.10457989 30.14910262 -1.125 18.625 C-1.12767883 17.7502301 -1.13035767 16.87546021 -1.13311768 15.97418213 C-1.13889787 13.4957652 -1.13728872 11.01747976 -1.1328125 8.5390625 C-1.13478638 7.78951294 -1.13676025 7.03996338 -1.13879395 6.2677002 C-1.11535343 1.11535343 -1.11535343 1.11535343 0 0 Z " fill="#8D6E35" transform="translate(63,251)"/>
<path d="M0 0 C-0.95712891 0.38091797 -0.95712891 0.38091797 -1.93359375 0.76953125 C-2.75988281 1.11371094 -3.58617187 1.45789063 -4.4375 1.8125 C-5.26121094 2.14894531 -6.08492188 2.48539062 -6.93359375 2.83203125 C-9.33372488 3.88403088 -9.33372488 3.88403088 -10 7 C-26.8591292 13.17913785 -46.12518533 9.40212557 -63 5 C-59.62162599 3.87910097 -57.38465129 4.17863072 -53.9375 4.9375 C-37.80436751 7.84383637 -22.24942612 6.15334893 -6.94824219 0.58911133 C-2.20666236 -1.10333118 -2.20666236 -1.10333118 0 0 Z " fill="#BAA67C" transform="translate(326,342)"/>
<path d="M0 0 C3.64553172 1.2808625 5.16671013 2.16671013 8 5 C-10.15 5 -28.3 5 -47 5 C-46.34 4.01 -45.68 3.02 -45 2 C-43.05111694 1.63923645 -43.05111694 1.63923645 -40.64208984 1.65942383 C-39.74130707 1.65965042 -38.84052429 1.65987701 -37.91244507 1.66011047 C-36.93844757 1.67559433 -35.96445007 1.69107819 -34.9609375 1.70703125 C-33.96494537 1.71127609 -32.96895325 1.71552094 -31.94277954 1.71989441 C-28.75324775 1.7367232 -25.56434167 1.77438324 -22.375 1.8125 C-20.21615494 1.8275414 -18.0573 1.84123075 -15.8984375 1.85351562 C-10.59874388 1.88664033 -5.29941663 1.93688104 0 2 C0 1.34 0 0.68 0 0 Z " fill="#896D3A" transform="translate(79,357)"/>
<path d="M0 0 C-3.60447788 2.11866257 -7.37471289 2.83173784 -11.4375 3.5625 C-12.50701904 3.75646362 -12.50701904 3.75646362 -13.59814453 3.9543457 C-20.05370637 5.08071801 -26.44786192 5.75401529 -33 6 C-34.30839844 6.05285156 -35.61679687 6.10570312 -36.96484375 6.16015625 C-46.03070411 6.39944027 -54.87498374 5.72591115 -63.875 4.625 C-64.91567627 4.49899414 -65.95635254 4.37298828 -67.02856445 4.24316406 C-75.12821115 3.17290841 -75.12821115 3.17290841 -79 1 C-74.74957906 0.842577 -71.08745589 0.90746485 -66.96875 1.96875 C-58.41400048 3.75052836 -49.57736415 3.47436405 -40.875 3.625 C-39.04164951 3.66324883 -37.20831566 3.70230438 -35.375 3.7421875 C-30.91680432 3.83743468 -26.45852483 3.92173561 -22 4 C-22 3.34 -22 2.68 -22 2 C-19.27123692 1.66304138 -16.54206837 1.33031571 -13.8125 1 C-12.65911133 0.85691406 -12.65911133 0.85691406 -11.48242188 0.7109375 C-7.63071189 0.24807106 -3.88829149 -0.12467468 0 0 Z " fill="#CFC29F" transform="translate(322,360)"/>
<path d="M0 0 C-0.89460938 0.17015625 -1.78921875 0.3403125 -2.7109375 0.515625 C-9.33378187 1.84301811 -15.49603204 3.35098602 -21.69921875 6.03125 C-23.9812222 6.99209356 -26.2633036 7.75970675 -28.625 8.5 C-31.72101034 9.49534258 -34.54428917 10.70179714 -37.4375 12.1875 C-41 14 -41 14 -43 14 C-44.54278761 14.15594965 -46.08437905 14.32392903 -47.625 14.5 C-48.85089844 14.63921875 -48.85089844 14.63921875 -50.1015625 14.78125 C-50.72804688 14.8534375 -51.35453125 14.925625 -52 15 C-48.37695973 11.90531977 -44.36533734 10.2730874 -40 8.5 C-39.23961426 8.19030273 -38.47922852 7.88060547 -37.69580078 7.56152344 C-31.56129321 5.11911658 -25.47255246 3.32430741 -19 2 C-17.68988658 1.70931228 -16.38000376 1.41758389 -15.0703125 1.125 C-3.63859539 -1.34628029 -3.63859539 -1.34628029 0 0 Z " fill="#D7C79C" transform="translate(358,106)"/>
<path d="M0 0 C0.33 0.66 0.66 1.32 1 2 C0.67 2.99 0.34 3.98 0 5 C0.99 4.67 1.98 4.34 3 4 C3.27714844 4.85464844 3.55429687 5.70929688 3.83984375 6.58984375 C4.59448313 8.80802618 5.39708729 11.01065519 6.25390625 13.19140625 C9.36896871 21.21617909 10.84277009 28.39523594 11 37 C10.34 37 9.68 37 9 37 C8.84442627 36.42145264 8.68885254 35.84290527 8.52856445 35.24682617 C4.76264416 20.76799067 4.76264416 20.76799067 -1.3125 7.15625 C-2.25622597 4.19638217 -1.36868974 2.69936032 0 0 Z " fill="#D3C194" transform="translate(365,173)"/>
<path d="M0 0 C2.64 0.33 5.28 0.66 8 1 C8 1.66 8 2.32 8 3 C10.475 3.99 10.475 3.99 13 5 C13 5.66 13 6.32 13 7 C14.051875 6.9071875 14.051875 6.9071875 15.125 6.8125 C18.69071904 7.04504689 20.87422131 8.30686988 24 10 C25.65910004 10.68528045 27.32332564 11.35891863 29 12 C29 12.66 29 13.32 29 14 C32.465 15.485 32.465 15.485 36 17 C33.56647651 17.87985517 32.30433734 18.09405808 29.80078125 17.3203125 C26.85327387 15.90439844 23.91826781 14.47579068 21 13 C19.95682617 12.475271 19.95682617 12.475271 18.89257812 11.93994141 C16.60925774 10.78491398 14.33461197 9.61441084 12.0625 8.4375 C10.96192261 7.87409912 10.96192261 7.87409912 9.83911133 7.29931641 C5.98155685 5.26574575 2.90286775 3.34246653 0 0 Z " fill="#B09D73" transform="translate(193,339)"/>
<path d="M0 0 C5.78900691 8.68351037 5.28815489 20.19547109 5.3125 30.25 C5.31781738 31.36971191 5.32313477 32.48942383 5.32861328 33.64306641 C5.25784089 41.74215911 5.25784089 41.74215911 3 44 C3 38.39 3 32.78 3 27 C2.67 27 2.34 27 2 27 C0.72958023 17.95960217 -0.34915606 9.15564771 0 0 Z " fill="#CAB481" transform="translate(410,202)"/>
<path d="M0 0 C0.33 0 0.66 0 1 0 C1 18.48 1 36.96 1 56 C0.67 56 0.34 56 0 56 C-0.06058594 55.04480469 -0.12117188 54.08960938 -0.18359375 53.10546875 C-0.26738281 51.81253906 -0.35117187 50.51960938 -0.4375 49.1875 C-0.51871094 47.92292969 -0.59992187 46.65835938 -0.68359375 45.35546875 C-0.83708043 43.04506193 -1.02662778 40.74957439 -1.27148438 38.44677734 C-1.98827982 31.64575385 -1.98654951 25.07424696 -1.625 18.25 C-1.58117188 17.26128906 -1.53734375 16.27257812 -1.4921875 15.25390625 C-1.24492205 10.10941116 -0.83760222 5.08239991 0 0 Z " fill="#9B814E" transform="translate(64,152)"/>
<path d="M0 0 C3.08603789 0.10286793 5.76424114 0.40117967 8.75 1.125 C8.75 1.785 8.75 2.445 8.75 3.125 C7.5125 3.145625 6.275 3.16625 5 3.1875 C4.30390625 3.19910156 3.6078125 3.21070313 2.890625 3.22265625 C0.71707597 3.12349799 -1.16306537 2.72193851 -3.25 2.125 C-3.23839844 2.84300781 -3.22679687 3.56101562 -3.21484375 4.30078125 C-3.12793478 14.2704817 -3.66166002 24.17575076 -4.25 34.125 C-5.24 34.62 -5.24 34.62 -6.25 35.125 C-6.30868218 31.1458966 -6.3438239 27.16690647 -6.375 23.1875 C-6.39175781 22.07052734 -6.40851563 20.95355469 -6.42578125 19.80273438 C-6.46426239 13.24169967 -6.03129774 7.45190568 -4.25 1.125 C-3.25 0.125 -3.25 0.125 0 0 Z " fill="#A08654" transform="translate(237.25,260.875)"/>
<path d="M0 0 C1.33332095 2.6666419 0.67102033 4.16680303 0 7 C-0.66 7 -1.32 7 -2 7 C-2.10957031 7.56847656 -2.21914062 8.13695313 -2.33203125 8.72265625 C-4.85076474 20.98868358 -4.85076474 20.98868358 -8.4609375 24.3671875 C-12.35623895 28.4997662 -14.26147251 35.57744072 -14.25 41.1875 C-14.1675 42.115625 -14.085 43.04375 -14 44 C-14.66 44 -15.32 44 -16 44 C-17.37979499 39.57723711 -16.15029268 36.31340965 -14.6875 32.0625 C-14.42622314 31.28849854 -14.16494629 30.51449707 -13.89575195 29.71704102 C-5.31902437 5.31902437 -5.31902437 5.31902437 0 0 Z " fill="#CDBD94" transform="translate(184,73)"/>
<path d="M0 0 C0.33 0 0.66 0 1 0 C1.1953125 1.88802083 1.390625 3.77604167 1.5859375 5.6640625 C1.93607925 8.08981019 1.93607925 8.08981019 3.02294922 10.59423828 C4.23199161 14.8086664 4.18893823 18.47692814 4.046875 22.828125 C4.02659241 23.65834167 4.00630981 24.48855835 3.9854126 25.34393311 C3.94003836 27.08880859 3.88930436 28.83355207 3.83349609 30.578125 C3.74984274 33.25503219 3.68824378 35.93183029 3.62890625 38.609375 C3.58204214 40.30732841 3.53390971 42.0052474 3.484375 43.703125 C3.46654968 44.50518372 3.44872437 45.30724243 3.43035889 46.13360596 C3.23019836 51.76980164 3.23019836 51.76980164 1 54 C1.00523682 52.91581787 1.01047363 51.83163574 1.01586914 50.71459961 C1.03405333 46.6685469 1.04548083 42.62249777 1.05493164 38.57641602 C1.05994129 36.82966503 1.06675085 35.0829182 1.07543945 33.33618164 C1.08765319 30.81655854 1.09326213 28.29699119 1.09765625 25.77734375 C1.10281754 25.00414291 1.10797882 24.23094208 1.11329651 23.43431091 C1.11376319 18.86065158 0.72330742 14.52914761 0 10 C-0.0616181 8.1884279 -0.08732808 6.37494968 -0.0625 4.5625 C-0.05347656 3.69753906 -0.04445313 2.83257812 -0.03515625 1.94140625 C-0.02355469 1.30074219 -0.01195312 0.66007813 0 0 Z " fill="#BFA874" transform="translate(376,207)"/>
<path d="M0 0 C0 0.66 0 1.32 0 2 C-0.99 2 -1.98 2 -3 2 C-3.23203125 2.75023437 -3.4640625 3.50046875 -3.703125 4.2734375 C-5.25295609 7.53181731 -6.76473665 8.64387069 -9.75 10.625 C-10.64589844 11.223125 -11.54179687 11.82125 -12.46484375 12.4375 C-15 14 -15 14 -18.3125 15.625 C-21.51289613 17.26241197 -23.5809692 19.36752531 -26 22 C-26.66 21.67 -27.32 21.34 -28 21 C-23.09802073 15.8246543 -17.88686658 11.39581763 -12.1875 7.125 C-11.42501953 6.54492188 -10.66253906 5.96484375 -9.87695312 5.3671875 C-2.78549394 0 -2.78549394 0 0 0 Z " fill="#C9B88C" transform="translate(292,129)"/>
<path d="M0 0 C0.99 0.495 0.99 0.495 2 1 C2.625 3.5625 2.625 3.5625 3 6 C3.66 6 4.32 6 5 6 C5 7.65 5 9.3 5 11 C5.66 11 6.32 11 7 11 C7.25394531 12.14339844 7.50789063 13.28679687 7.76953125 14.46484375 C8.11650391 15.95588841 8.46419753 17.44676542 8.8125 18.9375 C8.97814453 19.69224609 9.14378906 20.44699219 9.31445312 21.22460938 C9.77816623 23.17570413 10.3807544 25.09255787 11 27 C11.99 27.33 12.98 27.66 14 28 C14 28.66 14 29.32 14 30 C14.66 30.33 15.32 30.66 16 31 C14.515 32.485 14.515 32.485 13 34 C12.01 33.67 11.02 33.34 10 33 C9.06445312 30.93383789 9.06445312 30.93383789 8.28125 28.22265625 C7.98863281 27.23330078 7.69601562 26.24394531 7.39453125 25.22460938 C7.09933594 24.18111328 6.80414063 23.13761719 6.5 22.0625 C6.20480469 21.05380859 5.90960938 20.04511719 5.60546875 19.00585938 C5.01725953 16.99376926 4.43387382 14.98026238 3.85546875 12.96533203 C2.60560903 8.63291303 1.30503724 4.31606411 0 0 Z " fill="#D9CAA3" transform="translate(249,98)"/>
<path d="M0 0 C3.69375734 3.54864545 6.91373863 7.2825575 10 11.375 C10.43425293 11.94645752 10.86850586 12.51791504 11.31591797 13.10668945 C12.54888263 14.73406402 13.77465701 16.36687894 15 18 C15.87011719 19.15435547 15.87011719 19.15435547 16.7578125 20.33203125 C20 24.73214286 20 24.73214286 20 27 C17.39393335 26.64054253 16.22352791 26.23212513 14.375 24.3125 C13 22 13 22 12.125 19 C10.77496542 15.39990778 9.04189397 14.24139556 6 12 C6 11.34 6 10.68 6 10 C5.01 9.67 4.02 9.34 3 9 C2.05078125 6.93359375 2.05078125 6.93359375 1.3125 4.4375 C1.06113281 3.61121094 0.80976563 2.78492188 0.55078125 1.93359375 C0.36902344 1.29550781 0.18726563 0.65742188 0 0 Z " fill="#D5C398" transform="translate(233,30)"/>
<path d="M0 0 C1.42122098 0.4008572 2.83686706 0.82150163 4.25 1.25 C5.43335938 1.59804688 5.43335938 1.59804688 6.640625 1.953125 C9.42785707 3.18984387 10.85181142 4.85181142 13 7 C15.04462154 8.15473445 17.13163807 9.23687038 19.25 10.25 C20.32765625 10.77078125 21.4053125 11.2915625 22.515625 11.828125 C23.33546875 12.21484375 24.1553125 12.6015625 25 13 C22.19966161 14.11346788 21.09856297 14.03510273 18.203125 13.00390625 C17.22859375 12.52824219 16.2540625 12.05257813 15.25 11.5625 C14.26515625 11.08941406 13.2803125 10.61632812 12.265625 10.12890625 C11.51796875 9.75636719 10.7703125 9.38382812 10 9 C10 8.34 10 7.68 10 7 C7.03 6.67 4.06 6.34 1 6 C1 5.01 1 4.02 1 3 C0.67 2.01 0.34 1.02 0 0 Z " fill="#AA9261" transform="translate(228,330)"/>
<path d="M0 0 C0.33 0 0.66 0 1 0 C1.26573427 7.97202797 1.26573427 7.97202797 -1 12 C-1.226875 13.258125 -1.45375 14.51625 -1.6875 15.8125 C-2.842649 20.90088362 -6.14602249 23.70247914 -10 27 C-10.99 26.34 -11.98 25.68 -13 25 C-12.46890625 24.39414062 -11.9378125 23.78828125 -11.390625 23.1640625 C-5.32383928 15.96805754 -1.69084967 9.27504914 0 0 Z " fill="#AB976E" transform="translate(47,333)"/>
<path d="M0 0 C-1.70577342 0.65256456 -3.41476089 1.29673041 -5.125 1.9375 C-6.07632813 2.29714844 -7.02765625 2.65679687 -8.0078125 3.02734375 C-13.58005293 4.83868561 -18.98567401 5.19304936 -24.8125 5.1875 C-25.864375 5.1884668 -25.864375 5.1884668 -26.9375 5.18945312 C-32.24742613 5.13547051 -36.91088689 4.45403232 -42 3 C-42 2.67 -42 2.34 -42 2 C-41.13834229 2.01571045 -40.27668457 2.0314209 -39.38891602 2.04760742 C-36.15163448 2.09913779 -32.91456399 2.13654394 -29.67700195 2.16479492 C-28.28337672 2.17975938 -26.88979756 2.20013851 -25.49633789 2.22631836 C-18.04034364 2.36275744 -6.08401704 -2.02800568 0 0 Z " fill="#CDBD99" transform="translate(280,262)"/>
<path d="M0 0 C1 2 1 2 0.50268555 3.73657227 C0.2169165 4.42291748 -0.06885254 5.1092627 -0.36328125 5.81640625 C-0.67330078 6.58146484 -0.98332031 7.34652344 -1.30273438 8.13476562 C-1.63595703 8.93591797 -1.96917969 9.73707031 -2.3125 10.5625 C-5.36871543 17.91824093 -8 24.95060381 -8 33 C-7.01 33.66 -6.02 34.32 -5 35 C-6.65 34.67 -8.3 34.34 -10 34 C-10.13999163 28.8736398 -9.6672525 24.08094987 -8.6875 19.0625 C-8.4877356 18.01352539 -8.4877356 18.01352539 -8.28393555 16.94335938 C-7.30802448 12.03579018 -6.0017364 7.57539749 -4 3 C-3.34 3.33 -2.68 3.66 -2 4 C-1.34 2.68 -0.68 1.36 0 0 Z " fill="#CDBC95" transform="translate(248,211)"/>
<path d="M0 0 C5.00083817 0.50008382 9.92386774 1.13387504 14.875 2 C20.56624373 2.98023992 26.24331404 3.56938176 32 4 C32 4.66 32 5.32 32 6 C7.09265227 5.10812117 7.09265227 5.10812117 2 3 C1.34 2.01 0.68 1.02 0 0 Z " fill="#9C824F" transform="translate(261,347)"/>
<path d="M0 0 C1.49172026 5.21532731 0.90540814 9.32331826 -1.6875 14.125 C-3.50028429 16.37873182 -4.98284429 17.91211619 -7.1875 19.6875 C-10.21519969 21.75901706 -10.21519969 21.75901706 -11 25 C-11.99 25.33 -12.98 25.66 -14 26 C-12.67758831 22.3128817 -11.04092406 19.49550463 -8.6875 16.375 C-4.98028855 11.22523347 -2.41339854 5.84998908 0 0 Z " fill="#C9B88C" transform="translate(366,294)"/>
<path d="M0 0 C0.33 0 0.66 0 1 0 C0.96400356 9.14309487 -1.35315307 17.94628629 -7.6953125 24.84375 C-8.12585938 25.2253125 -8.55640625 25.606875 -9 26 C-9.5497272 20.36529617 -7.95047835 17.61012242 -5 13 C-4.34 13 -3.68 13 -3 13 C-3.33 12.01 -3.66 11.02 -4 10 C-3.01 10 -2.02 10 -1 10 C-1 9.34 -1 8.68 -1 8 C-1.66 7.67 -2.32 7.34 -3 7 C-2.01 4.69 -1.02 2.38 0 0 Z " fill="#C8B586" transform="translate(406,282)"/>
<path d="M0 0 C0.33 0.66 0.66 1.32 1 2 C-7.11545724 18.58376045 -7.11545724 18.58376045 -13.25 20.8203125 C-13.8275 20.87960938 -14.405 20.93890625 -15 21 C-13.63176013 17.06367913 -11.83593682 14.26796943 -9.1875 11.0625 C-8.47980469 10.20011719 -7.77210938 9.33773437 -7.04296875 8.44921875 C-6.03169922 7.23685547 -6.03169922 7.23685547 -5 6 C-4.45988281 5.34644531 -3.91976562 4.69289063 -3.36328125 4.01953125 C-2.24833506 2.67456751 -1.12530947 1.336305 0 0 Z " fill="#D2C195" transform="translate(216,27)"/>
<path d="M0 0 C0.94875 0.04125 1.8975 0.0825 2.875 0.125 C3.205 0.785 3.535 1.445 3.875 2.125 C2.8540625 2.4034375 2.8540625 2.4034375 1.8125 2.6875 C-1.0635039 4.09490616 -2.39658609 5.28107068 -4.5625 7.5625 C-7.4712728 10.6243661 -10.17901476 12.48885978 -14.125 14.125 C-12.69942379 10.94596506 -10.9476848 8.58841568 -8.625 6 C-8.0165625 5.31679687 -7.408125 4.63359375 -6.78125 3.9296875 C-3.29577117 0.13183085 -3.29577117 0.13183085 0 0 Z " fill="#CDBA8C" transform="translate(380.125,158.875)"/>
<path d="M0 0 C0.66 0 1.32 0 2 0 C2.33 1.32 2.66 2.64 3 4 C3.99 3.67 4.98 3.34 6 3 C10.59225513 11.261959 10.59225513 11.261959 10 16 C10.66 16 11.32 16 12 16 C12.99 18.97 13.98 21.94 15 25 C12.35320535 22.35320535 10.89737835 20.34549047 9.08203125 17.1484375 C8.55029297 16.21515625 8.01855469 15.281875 7.47070312 14.3203125 C6.64989258 12.86238281 6.64989258 12.86238281 5.8125 11.375 C5.25369141 10.3953125 4.69488281 9.415625 4.11914062 8.40625 C0 1.14368704 0 1.14368704 0 0 Z " fill="#B8A57D" transform="translate(124,251)"/>
<path d="M0 0 C9.83362835 5.36862953 17.3367447 15.19839343 24 24 C23.67 24.66 23.34 25.32 23 26 C18.01850639 22.8983153 16.07529934 21.39147521 13.88647461 15.82543945 C12.35922823 12.68051487 9.95757418 10.49605534 7.4375 8.125 C6.94314453 7.6403125 6.44878906 7.155625 5.93945312 6.65625 C3.20927801 4.00390348 3.20927801 4.00390348 0 2 C0 1.34 0 0.68 0 0 Z " fill="#DED1AB" transform="translate(176,142)"/>
<path d="M0 0 C0.66 0 1.32 0 2 0 C3.6875 2.375 3.6875 2.375 5 5 C4.67 5.66 4.34 6.32 4 7 C3.67 6.01 3.34 5.02 3 4 C2.34 4 1.68 4 1 4 C1 18.52 1 33.04 1 48 C0.67 48 0.34 48 0 48 C0 32.16 0 16.32 0 0 Z " fill="#C6B895" transform="translate(65,151)"/>
<path d="M0 0 C0 5.87846526 -3.64283564 12.26945021 -7 17 C-7.66 17 -8.32 17 -9 17 C-9.33 17.99 -9.66 18.98 -10 20 C-12.0625 21.1875 -12.0625 21.1875 -14 22 C-12.38659413 17.26062027 -9.78869543 13.41984999 -7 9.3125 C-6.32324219 8.29833008 -6.32324219 8.29833008 -5.6328125 7.26367188 C-3.86382663 4.63374466 -2.2477334 2.2477334 0 0 Z " fill="#D3C197" transform="translate(331,155)"/>
<path d="M0 0 C3.56506999 3.15673598 5.5919381 6.63795507 7.625 10.875 C7.9240625 11.47441406 8.223125 12.07382813 8.53125 12.69140625 C13.26192449 22.34114492 13.26192449 22.34114492 12.625 26.375 C12.41875 26.91125 12.2125 27.4475 12 28 C9.65584655 24.48376983 8.86041381 21.2265518 7.78125 17.1796875 C7.21942612 14.82176073 7.21942612 14.82176073 5 14 C4.3671875 12.15234375 4.3671875 12.15234375 3.875 9.9375 C3.62363281 8.83728516 3.62363281 8.83728516 3.3671875 7.71484375 C3.24601562 7.14894531 3.12484375 6.58304688 3 6 C2.34 6 1.68 6 1 6 C0.67 4.02 0.34 2.04 0 0 Z " fill="#DECEA2" transform="translate(397,174)"/>
<path d="M0 0 C-1.34191406 0.25523438 -1.34191406 0.25523438 -2.7109375 0.515625 C-9.39351907 1.85499103 -15.48612443 3.43810364 -21.734375 6.1484375 C-25.14658109 7.43095634 -28.3767361 7.73161008 -32 8 C-29.82548507 5.53945403 -28.17590791 4.50199278 -25.015625 3.6484375 C-24.24476563 3.43703125 -23.47390625 3.225625 -22.6796875 3.0078125 C-21.47699219 2.69457031 -21.47699219 2.69457031 -20.25 2.375 C-19.46367187 2.1584375 -18.67734375 1.941875 -17.8671875 1.71875 C-4.91074376 -1.76786775 -4.91074376 -1.76786775 0 0 Z " fill="#CDB780" transform="translate(358,106)"/>
<path d="M0 0 C6.01692159 0.62101255 11.66441435 1.80135893 17.5 3.375 C18.30308594 3.58382812 19.10617188 3.79265625 19.93359375 4.0078125 C25.0937171 5.379385 30.02925477 7.0504646 35 9 C35 9.33 35 9.66 35 10 C33.02 10.33 31.04 10.66 29 11 C28.67 10.34 28.34 9.68 28 9 C26.845 8.835 25.69 8.67 24.5 8.5 C23.345 8.335 22.19 8.17 21 8 C20.67 7.34 20.34 6.68 20 6 C17.57373531 5.40822812 15.20634549 4.92095563 12.75 4.5 C8.30460014 3.72055609 4.14232591 2.86244111 0 1 C0 0.67 0 0.34 0 0 Z " fill="#D3C6A2" transform="translate(90,103)"/>
<path d="M0 0 C-0.90232985 3.33862045 -1.63069461 4.74148623 -4.5 6.75 C-8.98303586 8.35108424 -13.27065467 8.72895056 -18 9 C-18 8.34 -18 7.68 -18 7 C-17.09636719 6.66226562 -16.19273437 6.32453125 -15.26171875 5.9765625 C-14.08222656 5.53054688 -12.90273438 5.08453125 -11.6875 4.625 C-9.92986328 3.96371094 -9.92986328 3.96371094 -8.13671875 3.2890625 C-0.13333333 0 -0.13333333 0 0 0 Z " fill="#B5A070" transform="translate(353,346)"/>
<path d="M0 0 C5.39882424 4.59474404 10.71333087 9.27676273 16 14 C15.01 14.495 15.01 14.495 14 15 C8.27818681 12.95649529 3.63795991 8.81060181 0 4 C0 2.68 0 1.36 0 0 Z " fill="#AC986C" transform="translate(205,308)"/>
<path d="M0 0 C0 4.03713348 -2.00646114 6.06624276 -4.375 9.125 C-4.7875 9.67542969 -5.2 10.22585937 -5.625 10.79296875 C-8.72442336 14.86221168 -8.72442336 14.86221168 -11 16 C-10.67 14.02 -10.34 12.04 -10 10 C-9.34 10 -8.68 10 -8 10 C-7.9175 9.2575 -7.835 8.515 -7.75 7.75 C-6.84562401 4.43395471 -5.6285474 3.16468609 -3 1 C-2.01 0.67 -1.02 0.34 0 0 Z " fill="#C4B183" transform="translate(314,227)"/>
<path d="M0 0 C3.79549259 0.54581199 5.30979295 2.05409295 7.75 4.9375 C8.67039063 6.00291016 8.67039063 6.00291016 9.609375 7.08984375 C11 9 11 9 11 11 C9.68 10.67 8.36 10.34 7 10 C7 9.34 7 8.68 7 8 C6.34 8 5.68 8 5 8 C4.54625 7.484375 4.0925 6.96875 3.625 6.4375 C3.08875 5.963125 2.5525 5.48875 2 5 C-1.0417096 5.28516028 -2.39045802 6.26030535 -5 8 C-3.62845496 5.04590299 -2.01136276 2.55991624 0 0 Z " fill="#D4C498" transform="translate(222,19)"/>
<path d="M0 0 C5.08436758 1.43144503 9.01911214 3.68434027 13.375 6.5625 C14.01566406 6.97435547 14.65632812 7.38621094 15.31640625 7.81054688 C16.89906964 8.84147154 18.45262095 9.91683466 20 11 C20 11.33 20 11.66 20 12 C18.35 12 16.7 12 15 12 C15 11.01 15 10.02 15 9 C13.14375 8.566875 13.14375 8.566875 11.25 8.125 C8.27551258 7.38665206 5.666144 6.55525067 3 5 C3 4.34 3 3.68 3 3 C2.01 3 1.02 3 0 3 C0 2.01 0 1.02 0 0 Z " fill="#BAA97E" transform="translate(145,122)"/>
<path d="M0 0 C6.02782803 -0.32291936 11.58624458 0.29743793 17.5 1.375 C18.21865234 1.50108643 18.93730469 1.62717285 19.67773438 1.75708008 C21.46696258 2.10015817 23.23659408 2.54235418 25 3 C25.33 3.66 25.66 4.32 26 5 C23.41577541 4.88581333 20.83320487 4.75907638 18.25 4.625 C17.15558594 4.57859375 17.15558594 4.57859375 16.0390625 4.53125 C12.20208668 4.32196041 9.31425286 3.96400169 6 2 C4.00889599 1.61709538 2.00899487 1.27395385 0 1 C0 0.67 0 0.34 0 0 Z " fill="#A48B5B" transform="translate(54,98)"/>
<path d="M0 0 C2 4 2 4 1.609375 6.32421875 C1.32578125 7.10410156 1.0421875 7.88398438 0.75 8.6875 C0.47671875 9.47511719 0.2034375 10.26273437 -0.078125 11.07421875 C-1 13 -1 13 -3 14 C-3.73075648 16.3140622 -4.40138258 18.64828869 -5 21 C-4.34 21.33 -3.68 21.66 -3 22 C-3.66 22.99 -4.32 23.98 -5 25 C-5.99 25 -6.98 25 -8 25 C-7.54762239 23.08191891 -7.08785537 21.16557967 -6.625 19.25 C-6.36976563 18.18265625 -6.11453125 17.1153125 -5.8515625 16.015625 C-5.12466459 13.44147278 -4.2973776 11.32399814 -3 9 C-2.34 9 -1.68 9 -1 9 C-0.67 6.03 -0.34 3.06 0 0 Z " fill="#C6B180" transform="translate(375,269)"/>
<path d="M0 0 C2.82674877 3.43337406 5.3569759 6.93945158 7.75 10.6875 C8.36359375 11.64011719 8.9771875 12.59273438 9.609375 13.57421875 C11 16 11 16 11 18 C10.01 18.33 9.02 18.66 8 19 C7.67 17.35 7.34 15.7 7 14 C6.01 13.67 5.02 13.34 4 13 C0.88411004 8.4597032 -0.54998918 5.63738908 0 0 Z " fill="#B6A37A" transform="translate(169,257)"/>
<path d="M0 0 C2.22679289 3.34018933 2.79403872 5.8386065 3.625 9.75 C3.88539063 10.94109375 4.14578125 12.1321875 4.4140625 13.359375 C4.99601603 16.97524624 5.10309533 20.34480192 5 24 C3.23537317 20.91190305 3 19.76687864 3 16 C2.34 16 1.68 16 1 16 C0.14701624 12.32612505 -0.10789471 8.9552607 -0.0625 5.1875 C-0.05347656 4.21167969 -0.04445313 3.23585937 -0.03515625 2.23046875 C-0.02355469 1.49441406 -0.01195312 0.75835937 0 0 Z " fill="#DBCB9F" transform="translate(410,202)"/>
<path d="M0 0 C3.92491136 4.52874388 7.37459686 9.60598991 10 15 C9.67 15.66 9.34 16.32 9 17 C4.64365151 15.54788384 3.58604031 12.99843905 1.3125 9.125 C-0.08096483 5.8072266 -0.25410674 3.55749441 0 0 Z " fill="#B6A379" transform="translate(109,156)"/>
<path d="M0 0 C-0.1875 1.8125 -0.1875 1.8125 -1 4 C-3.5625 5.75 -3.5625 5.75 -6 7 C-5.67 6.01 -5.34 5.02 -5 4 C-7.64 4.33 -10.28 4.66 -13 5 C-12.5 3.125 -12.5 3.125 -11 1 C-7.08733883 -0.61407836 -4.0524829 -1.35082763 0 0 Z " fill="#DCCB9C" transform="translate(356,126)"/>
<path d="M0 0 C1.32 0 2.64 0 4 0 C6.29920852 4.30967922 8.23159409 8.13342922 9 13 C9.64389782 15.00744615 10.30562253 17.00945124 11 19 C7.75177521 16.22312644 5.87816944 12.60938618 3.8125 8.9375 C3.44447266 8.30005859 3.07644531 7.66261719 2.69726562 7.00585938 C0 2.25687036 0 2.25687036 0 0 Z " fill="#BAAA80" transform="translate(105,218)"/>
<path d="M0 0 C1.2421875 1.578125 1.2421875 1.578125 2 4 C0.81301179 6.46941266 -0.35228523 8.50781483 -1.875 10.75 C-2.26558594 11.35199219 -2.65617187 11.95398438 -3.05859375 12.57421875 C-4.02479188 14.05886465 -5.01057788 15.53072939 -6 17 C-7.64415757 13.71168487 -6.02436584 10.86527451 -4.96875 7.48828125 C-3.80011621 4.48658883 -2.23339516 2.31040879 0 0 Z " fill="#C8B487" transform="translate(322,210)"/>
<path d="M0 0 C2 2 2 2 2 5 C2.99 5 3.98 5 5 5 C6.5826993 8.1653986 6.65696549 11.64641509 7.0625 15.125 C7.15337891 15.87910156 7.24425781 16.63320313 7.33789062 17.41015625 C7.56190852 19.27304188 7.78138573 21.13647252 8 23 C5.6902682 19.53540231 4.32427787 15.93533104 2.875 12.0625 C2.59785156 11.34642578 2.32070312 10.63035156 2.03515625 9.89257812 C0.7052272 6.35811152 0 3.82014887 0 0 Z " fill="#C3B18B" transform="translate(220,275)"/>
<path d="M0 0 C1.98 0 3.96 0 6 0 C1.37951624 3.72619658 -3.30982806 7.36230673 -8 11 C-8.33 9.68 -8.66 8.36 -9 7 C-8.01 6.67 -7.02 6.34 -6 6 C-5.67 5.01 -5.34 4.02 -5 3 C-2.4375 1.8125 -2.4375 1.8125 0 1 C0 0.67 0 0.34 0 0 Z " fill="#CAB78D" transform="translate(297,150)"/>
<path d="M0 0 C0.66 0.99 1.32 1.98 2 3 C-1.63 7.95 -5.26 12.9 -9 18 C-10 14 -10 14 -9.109375 11.859375 C-8.43648437 10.81523438 -8.43648437 10.81523438 -7.75 9.75 C-7.31171875 9.04359375 -6.8734375 8.3371875 -6.421875 7.609375 C-5.95265625 7.07828125 -5.4834375 6.5471875 -5 6 C-4.01 6 -3.02 6 -2 6 C-1.855625 5.195625 -1.71125 4.39125 -1.5625 3.5625 C-1 1 -1 1 0 0 Z " fill="#CCBB91" transform="translate(221,57)"/>
<path d="M0 0 C1.79296875 0.19140625 1.79296875 0.19140625 4 1 C5.73828125 3.21484375 5.73828125 3.21484375 7.3125 5.9375 C7.84488281 6.83339844 8.37726563 7.72929687 8.92578125 8.65234375 C9.28027344 9.42707031 9.63476562 10.20179688 10 11 C9.67 11.66 9.34 12.32 9 13 C6.5625 11.8125 6.5625 11.8125 4 10 C3.1875 7.3125 3.1875 7.3125 3 5 C2.34 5 1.68 5 1 5 C0.67 3.35 0.34 1.7 0 0 Z " fill="#B39E73" transform="translate(159,244)"/>
<path d="M0 0 C2.76535828 0.61452406 4.51792507 1.32287502 6.1875 3.66796875 C8.51486955 8.09168219 9.58621611 12.03459338 10 17 C7.04185281 14.38772848 5.28123892 11.33429693 3.3125 7.9375 C2.37857422 6.34228516 2.37857422 6.34228516 1.42578125 4.71484375 C0 2 0 2 0 0 Z " fill="#AD9972" transform="translate(90,192)"/>
<path d="M0 0 C0 2.87137415 -0.27113266 5.2303041 -1 8 C-1.99 8.495 -1.99 8.495 -3 9 C-3.433125 10.134375 -3.86625 11.26875 -4.3125 12.4375 C-6 16 -6 16 -8.6875 17.4375 C-9.450625 17.623125 -10.21375 17.80875 -11 18 C-9.51971645 13.81490516 -7.42574276 10.41688407 -4.9375 6.75 C-4.22464844 5.69296875 -3.51179687 4.6359375 -2.77734375 3.546875 C-1 1 -1 1 0 0 Z " fill="#CCBA8D" transform="translate(200,48)"/>
<path d="M0 0 C3.50297874 4.02193856 9 10.39433144 9 16 C7.68 15.67 6.36 15.34 5 15 C5 13.35 5 11.7 5 10 C4.01 9.67 3.02 9.34 2 9 C-0.29013653 5.5647952 -0.17842973 4.014669 0 0 Z " fill="#D7C8A0" transform="translate(261,70)"/>
<path d="M0 0 C0.66 1.32 1.32 2.64 2 4 C2.66 4 3.32 4 4 4 C4.95937901 6.87813704 5.26248034 9.1803315 5.5 12.1875 C5.88748015 16.81265989 6.39231533 21.39895891 7 26 C5.14807577 23.22211365 4.49294568 21.59339375 3.7109375 18.4375 C3.38222656 17.11878906 3.38222656 17.11878906 3.046875 15.7734375 C2.71429688 14.40058594 2.71429688 14.40058594 2.375 13 C2.14554688 12.08476562 1.91609375 11.16953125 1.6796875 10.2265625 C0 3.4078311 0 3.4078311 0 0 Z " fill="#CDBF98" transform="translate(212,246)"/>
<path d="M0 0 C2.64 0.33 5.28 0.66 8 1 C8 1.66 8 2.32 8 3 C10.475 3.99 10.475 3.99 13 5 C13 5.66 13 6.32 13 7 C13.66 7 14.32 7 15 7 C15 7.66 15 8.32 15 9 C9.26800429 7.53025751 4.66416601 4.55513098 0 1 C0 0.67 0 0.34 0 0 Z " fill="#B4A37D" transform="translate(193,339)"/>
<path d="M0 0 C3.08603789 0.10286793 5.76424114 0.40117967 8.75 1.125 C8.75 1.785 8.75 2.445 8.75 3.125 C7.5125 3.145625 6.275 3.16625 5 3.1875 C4.30390625 3.19910156 3.6078125 3.21070313 2.890625 3.22265625 C0.75 3.125 0.75 3.125 -3.25 2.125 C-3.25 6.415 -3.25 10.705 -3.25 15.125 C-3.58 15.125 -3.91 15.125 -4.25 15.125 C-4.27685412 12.81256208 -4.29632841 10.5000373 -4.3125 8.1875 C-4.32410156 6.89972656 -4.33570313 5.61195313 -4.34765625 4.28515625 C-4.22025084 0.16231734 -4.22025084 0.16231734 0 0 Z " fill="#A89060" transform="translate(237.25,260.875)"/>
<path d="M0 0 C-0.66 0 -1.32 0 -2 0 C-2 0.66 -2 1.32 -2 2 C-10.28966683 4.36011691 -18.52142887 4.35657138 -27 3 C-27.33 2.34 -27.66 1.68 -28 1 C-26.15535156 1.03480469 -26.15535156 1.03480469 -24.2734375 1.0703125 C-22.6406311 1.08908039 -21.0078181 1.10727949 -19.375 1.125 C-18.56675781 1.14175781 -17.75851563 1.15851563 -16.92578125 1.17578125 C-11.28436562 1.22164642 -5.11706524 -1.96810201 0 0 Z " fill="#AD9666" transform="translate(269,245)"/>
<path d="M0 0 C1.61992917 0.24126605 3.23979447 0.48296705 4.859375 0.7265625 C6.34352223 0.91614335 7.8349504 1.05323509 9.328125 1.1484375 C15.46158618 1.57493646 15.46158618 1.57493646 18.375 3.875 C18.91125 4.57625 19.4475 5.2775 20 6 C20.99029194 7.00961471 21.98876512 8.01136255 23 9 C15.28267891 6.47191206 7.64054098 3.74972528 0 1 C0 0.67 0 0.34 0 0 Z " fill="#CBBC98" transform="translate(108,132)"/>
<path d="M0 0 C3 1 3 1 4 3 C4.309375 3.680625 4.61875 4.36125 4.9375 5.0625 C5.84979181 7.16206673 5.84979181 7.16206673 8 8 C8.40729228 10.32156597 8.74438677 12.6568787 9 15 C9.66 15 10.32 15 11 15 C11 16.65 11 18.3 11 20 C8.63737554 17.00264062 6.75604485 13.9158781 4.9375 10.5625 C4.43089844 9.63566406 3.92429688 8.70882812 3.40234375 7.75390625 C2.10684941 5.20982961 1.01186218 2.66763666 0 0 Z " fill="#D5C79E" transform="translate(238,78)"/>
<path d="M0 0 C0 3.58546996 -0.87115867 4.65261559 -2.875 7.5625 C-3.40867187 8.34753906 -3.94234375 9.13257813 -4.4921875 9.94140625 C-6 12 -6 12 -8 14 C-9.15089256 10.54732232 -8.91927358 10.11212385 -7.375 7 C-5.50849355 3.44972199 -3.74237804 1.66327913 0 0 Z " fill="#C4AF7D" transform="translate(321,174)"/>
<path d="M0 0 C0.33 1.32 0.66 2.64 1 4 C-3.15296809 7.68606635 -7.30834891 11.02480663 -12 14 C-10.41332422 10.09714233 -7.86649519 7.66479018 -4.875 4.75 C-3.96492188 3.85796875 -3.05484375 2.9659375 -2.1171875 2.046875 C-1.41851562 1.37140625 -0.71984375 0.6959375 0 0 Z " fill="#C8B689" transform="translate(263,151)"/>
<path d="M0 0 C3.96 0 7.92 0 12 0 C12 0.33 12 0.66 12 1 C11.030625 1.12375 10.06125 1.2475 9.0625 1.375 C7.5465625 1.684375 7.5465625 1.684375 6 2 C5.67 2.66 5.34 3.32 5 4 C5.66 4 6.32 4 7 4 C12 9.47619048 12 9.47619048 12 12 C10 12 10 12 8.37890625 10.390625 C7.77949219 9.68421875 7.18007813 8.9778125 6.5625 8.25 C5.96566406 7.55390625 5.36882813 6.8578125 4.75390625 6.140625 C3.11332468 4.13831164 1.55315035 2.07086713 0 0 Z " fill="#927D4C" transform="translate(29,98)"/>
<path d="M0 0 C1.34032602 2.68065203 1.39983989 4.0012008 1 7 C-0.4771286 9.48942653 -2.18375447 11.74915286 -4 14 C-5.1796875 12.328125 -5.1796875 12.328125 -6 10 C-4.8828125 7.421875 -4.8828125 7.421875 -3.125 4.75 C-2.26261719 3.41195312 -2.26261719 3.41195312 -1.3828125 2.046875 C-0.92648437 1.37140625 -0.47015625 0.6959375 0 0 Z " fill="#C5B185" transform="translate(302,199)"/>
<path d="M0 0 C1.40167793 2.80335585 0.96536981 4.0349356 0 7 C-2.5625 9.8125 -2.5625 9.8125 -5 12 C-5.66 11.67 -6.32 11.34 -7 11 C-5.22054913 6.95579349 -2.60470327 3.53921513 0 0 Z " fill="#C6B487" transform="translate(250,165)"/>
<path d="M0 0 C0.99 0 1.98 0 3 0 C2.71617054 1.75128818 2.42260471 3.50100003 2.125 5.25 C1.96257812 6.22453125 1.80015625 7.1990625 1.6328125 8.203125 C1.05144152 10.77264117 0.29159735 12.72071056 -1 15 C-1.66 14.34 -2.32 13.68 -3 13 C-2.34 13 -1.68 13 -1 13 C-1.01160156 12.14535156 -1.02320313 11.29070312 -1.03515625 10.41015625 C-1.04417969 9.30542969 -1.05320313 8.20070313 -1.0625 7.0625 C-1.07410156 5.96035156 -1.08570313 4.85820313 -1.09765625 3.72265625 C-1 1 -1 1 0 0 Z " fill="#C6B591" transform="translate(188,117)"/>
<path d="M0 0 C-2.6226232 1.33819498 -5.24786599 2.6707151 -7.875 4 C-8.99455078 4.57234375 -8.99455078 4.57234375 -10.13671875 5.15625 C-10.85214844 5.5171875 -11.56757813 5.878125 -12.3046875 6.25 C-13.2944458 6.75273437 -13.2944458 6.75273437 -14.30419922 7.265625 C-16 8 -16 8 -18 8 C-17 5 -17 5 -15.109375 3.90234375 C-14.33078125 3.58394531 -13.5521875 3.26554687 -12.75 2.9375 C-11.93789063 2.60234375 -11.12578125 2.2671875 -10.2890625 1.921875 C-9.53367187 1.61765625 -8.77828125 1.3134375 -8 1 C-6.576875 0.3503125 -6.576875 0.3503125 -5.125 -0.3125 C-3 -1 -3 -1 0 0 Z " fill="#A38A56" transform="translate(334,340)"/>
<path d="M0 0 C3.9805565 2.16087353 7.01181101 4.58492687 10 8 C10 8.99 10 9.98 10 11 C6.8510285 9.63088196 4.9521513 8.1247864 2.75 5.5 C2.22921875 4.8915625 1.7084375 4.283125 1.171875 3.65625 C0 2 0 2 0 0 Z " fill="#BDAC81" transform="translate(175,119)"/>
<path d="M0 0 C-0.63808594 0.26554687 -1.27617187 0.53109375 -1.93359375 0.8046875 C-2.75988281 1.15789062 -3.58617187 1.51109375 -4.4375 1.875 C-5.26121094 2.22304688 -6.08492188 2.57109375 -6.93359375 2.9296875 C-9.15746715 3.8244937 -9.15746715 3.8244937 -10 6 C-13.3 6 -16.6 6 -20 6 C-16.63660335 3.75773557 -13.23659448 2.57407253 -9.4375 1.3125 C-8.40979492 0.95575195 -8.40979492 0.95575195 -7.36132812 0.59179688 C-2.24241255 -1.12120628 -2.24241255 -1.12120628 0 0 Z " fill="#CBBC96" transform="translate(326,342)"/>
<path d="M0 0 C3.81552617 1.49895671 5.53745046 3.7986856 8 7 C8.66 7.33 9.32 7.66 10 8 C10 8.66 10 9.32 10 10 C6.14677136 9.73727987 4.43862847 9.42708562 1.625 6.6875 C0 4 0 4 0 0 Z " fill="#A18C5F" transform="translate(169,315)"/>
<path d="M0 0 C0 3 0 3 -2.046875 5.2265625 C-3.38492187 6.41378906 -3.38492187 6.41378906 -4.75 7.625 C-5.63171875 8.42164063 -6.5134375 9.21828125 -7.421875 10.0390625 C-9.77660887 11.83008735 -11.12042861 12.60977771 -14 13 C-13.67 12.34 -13.34 11.68 -13 11 C-12.34 11 -11.68 11 -11 11 C-10.67 9.68 -10.34 8.36 -10 7 C-9.34 7 -8.68 7 -8 7 C-8 6.34 -8 5.68 -8 5 C-7.13375 4.87625 -7.13375 4.87625 -6.25 4.75 C-3.3840696 3.79468987 -2.0009236 2.21530827 0 0 Z " fill="#CEC09A" transform="translate(302,243)"/>
<path d="M0 0 C0.99 0.495 0.99 0.495 2 1 C2 1.66 2 2.32 2 3 C2.99 2.67 3.98 2.34 5 2 C6 5 6 5 5 8 C6.32 8.33 7.64 8.66 9 9 C9 10.98 9 12.96 9 15 C6.36115438 12.59888822 4.63586471 9.99444972 2.8125 6.9375 C2.01779297 5.62072266 2.01779297 5.62072266 1.20703125 4.27734375 C0 2 0 2 0 0 Z " fill="#BBAA82" transform="translate(73,163)"/>
<path d="M0 0 C1.59373901 2.39060851 2.65297076 4.30828179 3.6875 6.9375 C3.95949219 7.60652344 4.23148437 8.27554688 4.51171875 8.96484375 C5.0787676 11.32830338 4.76024003 12.7192799 4 15 C1.45585961 12.78770401 0.45253153 11.34873329 0 8 C-0.07182357 5.32713725 -0.04458486 2.67509154 0 0 Z " fill="#D5C59C" transform="translate(273,93)"/>
<path d="M0 0 C4.23322844 0.62045463 7.52290295 2.10523559 11.3125 4.0625 C12.38113281 4.61035156 13.44976562 5.15820312 14.55078125 5.72265625 C15.35902344 6.14417969 16.16726562 6.56570313 17 7 C14.19966161 8.11346788 13.09856297 8.03510273 10.203125 7.00390625 C9.22859375 6.52824219 8.2540625 6.05257813 7.25 5.5625 C6.26515625 5.08941406 5.2803125 4.61632812 4.265625 4.12890625 C3.51796875 3.75636719 2.7703125 3.38382812 2 3 C2 2.34 2 1.68 2 1 C1.34 0.67 0.68 0.34 0 0 Z " fill="#957C4B" transform="translate(236,336)"/>
<path d="M0 0 C1.27099045 3.81297136 0.45398157 5.3267834 -1 9 C-1.99 10.485 -1.99 10.485 -3 12 C-3.99 12 -4.98 12 -6 12 C-4.68139111 7.38486888 -2.78644563 3.90102388 0 0 Z " fill="#C1AE83" transform="translate(238,183)"/>
<path d="M0 0 C0.33 0 0.66 0 1 0 C1.36476427 6.32258065 1.36476427 6.32258065 -0.3125 9.4375 C-2 11 -2 11 -5 11 C-4.48847632 7.21472479 -3.79154158 5.55891312 -1 3 C-0.67 2.01 -0.34 1.02 0 0 Z " fill="#BFAB7B" transform="translate(396,303)"/>
<path d="M0 0 C0.33 0.66 0.66 1.32 1 2 C-1.34375 8.5625 -1.34375 8.5625 -5 11 C-5.72965366 13.56282742 -5.72965366 13.56282742 -6 16 C-6.99 15.67 -7.98 15.34 -9 15 C-7.61219205 11.10993227 -5.7847773 8.03441292 -3.375 4.6875 C-2.74335938 3.80449219 -2.11171875 2.92148438 -1.4609375 2.01171875 C-0.97882813 1.34785156 -0.49671875 0.68398437 0 0 Z " fill="#CABC95" transform="translate(295,211)"/>
<path d="M0 0 C0.99 0.33 1.98 0.66 3 1 C2.31063929 4.91121498 1.21749819 8.55508596 -0.0625 12.3125 C-0.42472656 13.38113281 -0.78695312 14.44976562 -1.16015625 15.55078125 C-1.43730469 16.35902344 -1.71445313 17.16726562 -2 18 C-3.0233835 14.8522135 -2.93320347 13.01116783 -1.9375 9.875 C-1.628125 8.59625 -1.31875 7.3175 -1 6 C-1.66 5.34 -2.32 4.68 -3 4 C-2.01 2.68 -1.02 1.36 0 0 Z " fill="#CEBE96" transform="translate(194,99)"/>
<path d="M0 0 C1 3 1 3 0.2578125 4.90234375 C-0.11601562 5.57394531 -0.48984375 6.24554688 -0.875 6.9375 C-2.35370337 9.62088128 -3.36807064 11.99497423 -4 15 C-4.66 15 -5.32 15 -6 15 C-6.33 15.66 -6.66 16.32 -7 17 C-6.56071941 11.50899258 -5.24025548 8.4185302 -2 4 C-1.30570621 2.6808418 -0.62469505 1.35350594 0 0 Z " fill="#B9A372" transform="translate(202,85)"/>
<path d="M0 0 C0.99 0 1.98 0 3 0 C1.66749209 3.5875213 0.169283 6.8364623 -2 10 C-2.66 10 -3.32 10 -4 10 C-4 8.35 -4 6.7 -4 5 C-3.34 5 -2.68 5 -2 5 C-1.34 3.35 -0.68 1.7 0 0 Z " fill="#C9B587" transform="translate(208,75)"/>
<path d="M0 0 C0.58984375 1.84765625 0.58984375 1.84765625 1 4 C0.0126546 5.67419438 -0.98812105 7.34051852 -2 9 C-2 9.886875 -2 10.77375 -2 11.6875 C-2 12.450625 -2 13.21375 -2 14 C-2.99 14.66 -3.98 15.32 -5 16 C-4.55643705 9.79011871 -3.08467498 5.39459439 0 0 Z " fill="#B09762" transform="translate(175,96)"/>
<path d="M0 0 C0.99 0.33 1.98 0.66 3 1 C3 1.99 3 2.98 3 4 C3.99 4.33 4.98 4.66 6 5 C5.67 5.66 5.34 6.32 5 7 C0.75177626 6.52797514 -1.19989709 4.03344482 -4 1 C-2.68 1.33 -1.36 1.66 0 2 C0 1.34 0 0.68 0 0 Z " fill="#AA9567" transform="translate(189,332)"/>
<path d="M0 0 C3.21043882 1.38188453 5.04936365 2.92421903 7.25 5.625 C8.03117188 6.57246094 8.03117188 6.57246094 8.828125 7.5390625 C9.40820312 8.26222656 9.40820312 8.26222656 10 9 C9.67 9.66 9.34 10.32 9 11 C7.66073801 10.00795408 6.32901064 9.00573778 5 8 C4.0925 7.360625 3.185 6.72125 2.25 6.0625 C1.5075 5.381875 0.765 4.70125 0 4 C0 2.68 0 1.36 0 0 Z " fill="#BAA981" transform="translate(193,295)"/>
<path d="M0 0 C0.99 0.33 1.98 0.66 3 1 C1.31326082 5.49797113 -0.81673892 9.72886302 -3 14 C-3.33 14 -3.66 14 -4 14 C-3.67 11.03 -3.34 8.06 -3 5 C-2.01 4.67 -1.02 4.34 0 4 C0 2.68 0 1.36 0 0 Z " fill="#C5B38B" transform="translate(253,197)"/>
<path d="M0 0 C1.98 0.66 3.96 1.32 6 2 C6 2.66 6 3.32 6 4 C6.66 4.33 7.32 4.66 8 5 C9.3703055 6.97485205 10.70672372 8.97386717 12 11 C7.37633404 9.04383363 3.20725037 6.03037563 0.625 1.6875 C0.41875 1.130625 0.2125 0.57375 0 0 Z " fill="#BBAB80" transform="translate(152,152)"/>
<path d="M0 0 C0 0.66 0 1.32 0 2 C-0.99 2 -1.98 2 -3 2 C-3.165 2.78375 -3.33 3.5675 -3.5 4.375 C-5 7 -5 7 -6.9140625 7.77734375 C-8.92516699 8.26413052 -10.962638 8.63853255 -13 9 C-4.5 0 -4.5 0 0 0 Z " fill="#D6C598" transform="translate(292,129)"/>
<path d="M0 0 C0.33 0 0.66 0 1 0 C1.75612577 5.23471686 2.2063366 9.77254141 1 15 C0.01 14.67 -0.98 14.34 -2 14 C-1.03644647 4.58997722 -1.03644647 4.58997722 0 0 Z " fill="#917949" transform="translate(50,322)"/>
<path d="M0 0 C-1 3 -1 3 -2.92578125 3.984375 C-3.71339844 4.23703125 -4.50101562 4.4896875 -5.3125 4.75 C-6.09238281 5.01296875 -6.87226563 5.2759375 -7.67578125 5.546875 C-10.16921091 6.03298902 -11.6181897 5.80665429 -14 5 C-11.67684302 2.67684302 -10.12738825 2.27503325 -7 1.375 C-6.113125 1.11460937 -5.22625 0.85421875 -4.3125 0.5859375 C-2 0 -2 0 0 0 Z " fill="#A58C5B" transform="translate(281,258)"/>
<path d="M0 0 C2 2 2 2 3 4.0625 C3.84589942 6.16865601 3.84589942 6.16865601 6 7 C6 10.63 6 14.26 6 18 C3.98996365 14.98494548 3.00828459 12.42503788 1.875 9 C1.52179688 7.948125 1.16859375 6.89625 0.8046875 5.8125 C0 3 0 3 0 0 Z " fill="#CDBE97" transform="translate(206,228)"/>
<path d="M0 0 C4.37336631 -0.37485997 6.32487842 0.75907221 10 3 C13.19395026 3.71401232 13.19395026 3.71401232 16 4 C15.67 4.66 15.34 5.32 15 6 C9.55432314 4.97137215 4.88182883 3.75385216 0 1 C0 0.67 0 0.34 0 0 Z " fill="#917849" transform="translate(221,352)"/>
<path d="M0 0 C1.69752187 0.25245197 3.38471545 0.57645775 5.0625 0.9375 C5.98160156 1.13214844 6.90070313 1.32679688 7.84765625 1.52734375 C8.91306641 1.76130859 8.91306641 1.76130859 10 2 C10 2.66 10 3.32 10 4 C7.36 4.33 4.72 4.66 2 5 C1.01 3.68 0.02 2.36 -1 1 C-0.67 0.67 -0.34 0.34 0 0 Z " fill="#A68D5E" transform="translate(253,343)"/>
<path d="M0 0 C3.91402949 1.26941497 5.79072873 2.51167694 8 6 C7.34 7.32 6.68 8.64 6 10 C4.99421411 8.71283353 3.99553202 7.42011342 3 6.125 C2.443125 5.40570313 1.88625 4.68640625 1.3125 3.9453125 C0 2 0 2 0 0 Z " fill="#AC966B" transform="translate(186,287)"/>
<path d="M0 0 C0.33 0 0.66 0 1 0 C1.33872513 1.41538717 1.67074624 2.83237963 2 4.25 C2.185625 5.03890625 2.37125 5.8278125 2.5625 6.640625 C3 9 3 9 3 13 C2.34 13 1.68 13 1 13 C-0.99544337 8.88439805 -1.26247139 5.54950416 -1 1 C-0.67 0.67 -0.34 0.34 0 0 Z " fill="#A18552" transform="translate(221,267)"/>
<path d="M0 0 C0.66 0 1.32 0 2 0 C2.50512244 1.60256108 3.00391627 3.20711792 3.5 4.8125 C3.7784375 5.70582031 4.056875 6.59914062 4.34375 7.51953125 C5 10 5 10 5 13 C4.34 13 3.68 13 3 13 C-0.42857143 4.57142857 -0.42857143 4.57142857 0 0 Z " fill="#A58C59" transform="translate(211,237)"/>
<path d="M0 0 C3.29078593 2.79716804 5.06305458 6.19528578 7 10 C6.67 10.66 6.34 11.32 6 12 C3 11 3 11 1 8 C0.46083854 5.3397977 0.26629902 2.70737337 0 0 Z " fill="#C2B086" transform="translate(210,183)"/>
<path d="M0 0 C4.2742558 1.5830577 6.26531794 4.50568404 9 8 C8.67 8.66 8.34 9.32 8 10 C1.29540481 5.88621444 1.29540481 5.88621444 0.0625 2.1875 C0.0315625 1.1046875 0.0315625 1.1046875 0 0 Z " fill="#C5B48C" transform="translate(191,158)"/>
<path d="M0 0 C0.66 0 1.32 0 2 0 C3.6875 2.375 3.6875 2.375 5 5 C4.67 5.66 4.34 6.32 4 7 C3.67 6.01 3.34 5.02 3 4 C2.34 4 1.68 4 1 4 C1 8.62 1 13.24 1 18 C0.67 18 0.34 18 0 18 C0 12.06 0 6.12 0 0 Z " fill="#D4C49D" transform="translate(65,151)"/>
<path d="M0 0 C0 0.66 0 1.32 0 2 C-0.66 2 -1.32 2 -2 2 C-2 2.66 -2 3.32 -2 4 C-3.6210103 4.69685498 -5.24696066 5.38222861 -6.875 6.0625 C-7.77992188 6.44535156 -8.68484375 6.82820313 -9.6171875 7.22265625 C-12 8 -12 8 -14 7 C-12.04480616 5.82807953 -10.0857461 4.6626071 -8.125 3.5 C-7.03445313 2.8503125 -5.94390625 2.200625 -4.8203125 1.53125 C-2 0 -2 0 0 0 Z " fill="#DACBA1" transform="translate(306,121)"/>
<path d="M0 0 C3.33333333 3.33333333 6.66666667 6.66666667 10 10 C3.25 8.25 3.25 8.25 1 6 C0.60235737 4.01178687 0.26224651 2.01055661 0 0 Z " fill="#B7A57F" transform="translate(73,348)"/>
<path d="M0 0 C0.99 0 1.98 0 3 0 C1.50163895 3.11198065 -0.19933758 6.0534615 -2 9 C-2.99 8.67 -3.98 8.34 -5 8 C-4.34 6.35 -3.68 4.7 -3 3 C-2.01 3 -1.02 3 0 3 C0 2.01 0 1.02 0 0 Z " fill="#C4AE7A" transform="translate(308,191)"/>
<path d="M0 0 C2.34882224 2.34882224 3.03503024 4.27123667 4.1875 7.375 C4.55230469 8.33148438 4.91710937 9.28796875 5.29296875 10.2734375 C6.01370542 13.05285296 5.98549829 14.35108103 5 17 C3.14670366 14.22005549 2.31436395 12.21743449 1.375 9.0625 C1.11460937 8.20785156 0.85421875 7.35320312 0.5859375 6.47265625 C0 4 0 4 0 0 Z " fill="#E6D7AE" transform="translate(404,185)"/>
<path d="M0 0 C0.66 0.66 1.32 1.32 2 2 C-0.97 4.64 -3.94 7.28 -7 10 C-7.66 9.67 -8.32 9.34 -9 9 C-6 6 -3 3 0 0 Z " fill="#BAA370" transform="translate(272,144)"/>
<path d="M0 0 C3.12270126 2.51830747 3.94523098 3.7261549 4.75 7.75 C4.8325 8.8225 4.915 9.895 5 11 C2.39841136 8.5284908 0.14130392 5.87968458 -2 3 C-2 2.34 -2 1.68 -2 1 C-1.34 0.67 -0.68 0.34 0 0 Z " fill="#B7A67E" transform="translate(41,109)"/>
<path d="M0 0 C-3.28355362 3.67758005 -6.62778237 5.81389118 -11 8 C-11.66 7.67 -12.32 7.34 -13 7 C-11.35 6.34 -9.7 5.68 -8 5 C-8 4.01 -8 3.02 -8 2 C-4.77208445 -0.1519437 -3.71599191 -0.20086443 0 0 Z " fill="#CABB94" transform="translate(367,340)"/>
<path d="M0 0 C3.43600559 5.15400839 4.24403837 8.77702167 4 15 C0.56399441 9.84599161 -0.24403837 6.22297833 0 0 Z " fill="#A48D5C" transform="translate(206,221)"/>
<path d="M0 0 C3.80666984 1.44390925 5.26602582 3.34952803 7 7 C6.67 7.66 6.34 8.32 6 9 C2.56225537 7.85408512 1.82586841 7.04311402 0 4 C0 2.68 0 1.36 0 0 Z " fill="#B39F73" transform="translate(135,203)"/>
<path d="M0 0 C3.33511388 2.9901021 5.21521119 5.89498574 7 10 C7 10.66 7 11.32 7 12 C4 11 4 11 2.83203125 9.2578125 C2.49558594 8.55398437 2.15914063 7.85015625 1.8125 7.125 C1.46832031 6.42632812 1.12414062 5.72765625 0.76953125 5.0078125 C0 3 0 3 0 0 Z " fill="#947E4C" transform="translate(112,226)"/>
<path d="M0 0 C0.66 0 1.32 0 2 0 C0.78184562 4.68520915 -0.69559987 8.70543612 -3 13 C-3.33 13 -3.66 13 -4 13 C-3.50269348 8.02693484 -2.44697666 4.36200187 0 0 Z " fill="#AA915D" transform="translate(231,198)"/>
<path d="M0 0 C0.625 1.8125 0.625 1.8125 1 4 C-1.31944788 7.47917182 -3.26369964 8.29429766 -7 10 C-5.33248852 6.05860922 -2.77289351 3.2107188 0 0 Z " fill="#D7C79C" transform="translate(373,163)"/>
<path d="M0 0 C4.97093824 0.41153737 9.44508386 0.79600832 14 3 C14 3.33 14 3.66 14 4 C12.02 4.33 10.04 4.66 8 5 C7.67 4.34 7.34 3.68 7 3 C4.67843403 2.59270772 2.3431213 2.25561323 0 2 C0 1.34 0 0.68 0 0 Z " fill="#C5B48C" transform="translate(111,109)"/>
<path d="M0 0 C1.33332095 2.6666419 0.67102033 4.16680303 0 7 C-0.66 7 -1.32 7 -2 7 C-2.66 8.98 -3.32 10.96 -4 13 C-4.66 13 -5.32 13 -6 13 C-4.58707905 8.1725201 -2.57025846 4.2837641 0 0 Z " fill="#D1C39C" transform="translate(184,73)"/>
<path d="M0 0 C0.99 0 1.98 0 3 0 C1.79157144 4.43090471 0.48331435 6.98112756 -3 10 C-2.69201674 8.51988629 -2.378482 7.04092675 -2.0625 5.5625 C-1.88847656 4.73878906 -1.71445312 3.91507813 -1.53515625 3.06640625 C-1 1 -1 1 0 0 Z " fill="#D0BF94" transform="translate(327,202)"/>
<path d="M0 0 C1 1 2 2 3 3 C3.33 3 3.66 3 4 3 C4.66 5.97 5.32 8.94 6 12 C2.32966073 8.72291137 0.30718811 5.28477792 -2 1 C-1.34 0.67 -0.68 0.34 0 0 Z " fill="#C3B28D" transform="translate(182,179)"/>
<path d="M0 0 C4.56454251 0.54339792 7.9728176 1.79463821 12 4 C8.69564916 5.12377697 6.9493138 4.89554742 3.75 3.5625 C3.04359375 3.27503906 2.3371875 2.98757812 1.609375 2.69140625 C1.07828125 2.46324219 0.5471875 2.23507813 0 2 C0 1.34 0 0.68 0 0 Z " fill="#A38A59" transform="translate(110,130)"/>
<path d="M0 0 C1.32 0.33 2.64 0.66 4 1 C4 1.66 4 2.32 4 3 C4.66 3.33 5.32 3.66 6 4 C5.01 4.99 4.02 5.98 3 7 C2.01 6.67 1.02 6.34 0 6 C0 4.02 0 2.04 0 0 Z " fill="#CABB96" transform="translate(259,125)"/>
<path d="M0 0 C0.33 0 0.66 0 1 0 C2.14507772 5.19689119 2.14507772 5.19689119 2 8 C-0.4375 11 -0.4375 11 -3 13 C-3.66 12.67 -4.32 12.34 -5 12 C-4.03114628 10.31503702 -3.03013277 8.64821244 -2 7 C-1.67 7 -1.34 7 -1 7 C-0.67 4.69 -0.34 2.38 0 0 Z " fill="#DBCCA6" transform="translate(278,108)"/>
<path d="M0 0 C4.39750672 0.50740462 6.86948922 3.08293314 10 6 C10 6.66 10 7.32 10 8 C4.98886765 6.5682479 3.05530451 4.01554307 0 0 Z " fill="#8E7644" transform="translate(179,326)"/>
<path d="M0 0 C1.14926266 0.95421808 2.29430541 1.91352045 3.4375 2.875 C4.07558594 3.40867187 4.71367187 3.94234375 5.37109375 4.4921875 C7 6 7 6 8 8 C2.25 6.25 2.25 6.25 0 4 C0 2.68 0 1.36 0 0 Z " fill="#B19F75" transform="translate(205,308)"/>
<path d="M0 0 C3.72940389 1.24313463 4.84656811 2.76985216 7 6 C6.67 6.99 6.34 7.98 6 9 C1.2 5.67692308 1.2 5.67692308 0.1875 2.25 C0.125625 1.5075 0.06375 0.765 0 0 Z " fill="#947D4E" transform="translate(160,305)"/>
<path d="M0 0 C-2.52788007 2.79872437 -4.20411134 4.45773019 -8 5 C-6.19780722 -0.02039417 -5.34443412 -1.60333024 0 0 Z " fill="#C1AF86" transform="translate(288,256)"/>
<path d="M0 0 C0.99 0 1.98 0 3 0 C1.44499019 3.81684226 -1.03595495 6.19195732 -4 9 C-3.67 7.02 -3.34 5.04 -3 3 C-2.34 3 -1.68 3 -1 3 C-0.67 2.01 -0.34 1.02 0 0 Z " fill="#C8B68C" transform="translate(307,234)"/>
<path d="M0 0 C1.65 0 3.3 0 5 0 C3.02 2.97 1.04 5.94 -1 9 C-1.66 7.68 -2.32 6.36 -3 5 C-2.34 4.67 -1.68 4.34 -1 4 C-0.34786708 1.97536745 -0.34786708 1.97536745 0 0 Z " fill="#C6B48C" transform="translate(261,184)"/>
<path d="M0 0 C2.74277578 3.19990508 4.6302836 6.00499382 6 10 C4.68 9.67 3.36 9.34 2 9 C2 8.01 2 7.02 2 6 C1.34 6 0.68 6 0 6 C0 4.02 0 2.04 0 0 Z " fill="#BCAA83" transform="translate(122,178)"/>
<path d="M0 0 C3 1 3 1 4.75 3.4375 C5.36875 4.7059375 5.36875 4.7059375 6 6 C5.67 6.66 5.34 7.32 5 8 C2 7 2 7 0 4 C0 2.68 0 1.36 0 0 Z " fill="#BEAB83" transform="translate(204,175)"/>
<path d="M0 0 C2.3125 0.125 2.3125 0.125 5 1 C6.875 3.9375 6.875 3.9375 8 7 C7.67 7.66 7.34 8.32 7 9 C5.83037314 7.69013727 4.66437056 6.3770374 3.5 5.0625 C2.8503125 4.33160156 2.200625 3.60070312 1.53125 2.84765625 C0 1 0 1 0 0 Z " fill="#BEAC84" transform="translate(172,171)"/>
<path d="M0 0 C1.875 0.3125 1.875 0.3125 4 1 C6.1519437 4.22791555 6.20086443 5.28400809 6 9 C2.91910327 6.22719294 1.31224548 3.93673644 0 0 Z " fill="#B7A67B" transform="translate(151,295)"/>
<path d="M0 0 C-1.74468372 0.70088156 -3.49601161 1.38524009 -5.25 2.0625 C-6.22453125 2.44535156 -7.1990625 2.82820313 -8.203125 3.22265625 C-11.04007395 4.01113787 -12.29409552 4.02437812 -15 3 C-4.8 -1.6 -4.8 -1.6 0 0 Z " fill="#D3C4A0" transform="translate(280,262)"/>
<path d="M0 0 C5.32697239 1.45281065 8.36402802 5.08111378 12 9 C8.0557333 9 7.17603973 7.68625863 4.3125 5.0625 C3.50425781 4.33160156 2.69601563 3.60070312 1.86328125 2.84765625 C1.24839844 2.23792969 0.63351563 1.62820312 0 1 C0 0.67 0 0.34 0 0 Z " fill="#A68F5D" transform="translate(174,143)"/>
<path d="M0 0 C-0.5590888 3.24271506 -1.4132178 4.93057424 -4 7 C-4.66 7 -5.32 7 -6 7 C-5.37162381 3.35541809 -4.14650034 0 0 0 Z " fill="#BDA87D" transform="translate(377,330)"/>
<path d="M0 0 C2.31 1.65 4.62 3.3 7 5 C6.67 6.32 6.34 7.64 6 9 C5.34 7.68 4.68 6.36 4 5 C3.01 5 2.02 5 1 5 C0.67 3.35 0.34 1.7 0 0 Z " fill="#A0895A" transform="translate(198,302)"/>
<path d="M0 0 C4.92307692 4.30769231 4.92307692 4.30769231 5.3125 7.8125 C5.209375 8.534375 5.10625 9.25625 5 10 C1.32769295 6.92000054 0.43197635 4.7517398 0 0 Z " fill="#AA9669" transform="translate(156,299)"/>
<path d="M0 0 C0.33 0 0.66 0 1 0 C1 3.3 1 6.6 1 10 C0.34 9.67 -0.32 9.34 -1 9 C-1.75 5.5625 -1.75 5.5625 -2 2 C-1.34 1.34 -0.68 0.68 0 0 Z " fill="#947F53" transform="translate(232,296)"/>
<path d="M0 0 C0.66 0.33 1.32 0.66 2 1 C0.875 3.5 0.875 3.5 -1 6 C-4.1875 6.3125 -4.1875 6.3125 -7 6 C-4.83312509 3.72478134 -2.54379491 1.84205838 0 0 Z " fill="#C7B68D" transform="translate(273,238)"/>
<path d="M0 0 C4.10811428 1.44992269 7.46855666 3.45407573 11 6 C11 6.33 11 6.66 11 7 C9.35 7 7.7 7 6 7 C6 6.01 6 5.02 6 4 C4.35 3.67 2.7 3.34 1 3 C0.67 2.01 0.34 1.02 0 0 Z " fill="#C7B792" transform="translate(154,127)"/>
<path d="M0 0 C0.99 0.33 1.98 0.66 3 1 C1.38405168 3.04119788 -0.2856382 5.04072937 -2 7 C-2.66 7 -3.32 7 -4 7 C-4 6.01 -4 5.02 -4 4 C-3.34 4 -2.68 4 -2 4 C-1.34 2.68 -0.68 1.36 0 0 Z " fill="#D0BC8E" transform="translate(269,121)"/>
<path d="M0 0 C0.33 0.66 0.66 1.32 1 2 C-2.41176471 8.70588235 -2.41176471 8.70588235 -5 10 C-3.14285714 2.42857143 -3.14285714 2.42857143 0 0 Z " fill="#CDBB8C" transform="translate(216,27)"/>
<path d="M0 0 C2.18975773 3.28463659 2.99806563 6.20696275 4 10 C2.0625 9.6875 2.0625 9.6875 0 9 C-1.15941038 5.52176885 -0.70820884 3.54104422 0 0 Z " fill="#B8A57C" transform="translate(69,338)"/>
<path d="M0 0 C0.88336837 2.4667645 1.1312406 3.63859372 0.22265625 6.140625 C-0.16019531 6.83671875 -0.54304688 7.5328125 -0.9375 8.25 C-1.31777344 8.95640625 -1.69804687 9.6628125 -2.08984375 10.390625 C-2.39019531 10.92171875 -2.69054687 11.4528125 -3 12 C-4.21386936 8.35839192 -3.6674695 7.66834531 -2.0625 4.3125 C-1.49208984 3.10013672 -1.49208984 3.10013672 -0.91015625 1.86328125 C-0.60980469 1.24839844 -0.30945313 0.63351562 0 0 Z " fill="#B09967" transform="translate(369,291)"/>
<path d="M0 0 C0.99 0.495 0.99 0.495 2 1 C2.6328125 3.28515625 2.6328125 3.28515625 3.125 6.0625 C3.29257813 6.98160156 3.46015625 7.90070313 3.6328125 8.84765625 C3.75398437 9.55792969 3.87515625 10.26820313 4 11 C2.29159719 9.36587557 1.06546953 8.13093906 0 6 C-0.039992 4.00039988 -0.04346799 1.99952758 0 0 Z " fill="#AF9C70" transform="translate(141,275)"/>
<path d="M0 0 C0.66 0 1.32 0 2 0 C3.96189209 3.6678852 5.39301257 6.87248551 6 11 C3.10067643 8.60490662 2.49831724 6.68754757 2 3 C1.34 3 0.68 3 0 3 C0 2.01 0 1.02 0 0 Z " fill="#907847" transform="translate(134,264)"/>
<path d="M0 0 C0.33 0.99 0.66 1.98 1 3 C-0.4375 5.6875 -0.4375 5.6875 -2 8 C-2.66 7.67 -3.32 7.34 -4 7 C-3.6875 4.625 -3.6875 4.625 -3 2 C-2.01 1.34 -1.02 0.68 0 0 Z " fill="#BFA671" transform="translate(331,195)"/>
<path d="M0 0 C-0.39803561 2.88575819 -0.79009069 3.82189513 -3.0625 5.75 C-3.701875 6.1625 -4.34125 6.575 -5 7 C-5.1875 4.625 -5.1875 4.625 -5 2 C-2 0 -2 0 0 0 Z " fill="#C8B58C" transform="translate(283,163)"/>
<path d="M0 0 C3 1 3 1 4.25 2.9375 C4.4975 3.618125 4.745 4.29875 5 5 C4.67 5.66 4.34 6.32 4 7 C3.01 6.67 2.02 6.34 1 6 C0.67 4.02 0.34 2.04 0 0 Z " fill="#AE9C71" transform="translate(70,156)"/>
<path d="M0 0 C0.33 0.66 0.66 1.32 1 2 C-0.98 4.64 -2.96 7.28 -5 10 C-5.33 9.01 -5.66 8.02 -6 7 C-4.78515625 5.17578125 -4.78515625 5.17578125 -3.0625 3.3125 C-2.49660156 2.68988281 -1.93070312 2.06726563 -1.34765625 1.42578125 C-0.90292969 0.95527344 -0.45820313 0.48476562 0 0 Z " fill="#C1AA73" transform="translate(335,152)"/>
<path d="M0 0 C3.39417765 3.12621626 5.6062718 5.56541027 7 10 C4.625 9.5 4.625 9.5 2 8 C0.91758097 5.33474712 0.50727893 2.8592085 0 0 Z " fill="#D3C29A" transform="translate(92,130)"/>
<path d="M0 0 C0 2.83967231 -0.40267181 5.23735711 -1 8 C-2.32 8.33 -3.64 8.66 -5 9 C-3.7508258 5.54074837 -2.32472205 2.85306797 0 0 Z " fill="#D5C49A" transform="translate(200,48)"/>
<path d="M0 0 C2.97 0 5.94 0 9 0 C6.09907498 1.93395001 5.10325263 2.30131941 1.8125 2.625 C0.554375 2.74875 -0.70375 2.8725 -2 3 C-1.34 2.67 -0.68 2.34 0 2 C0 1.34 0 0.68 0 0 Z " fill="#C7B992" transform="translate(324,357)"/>
<path d="M0 0 C0.99 0 1.98 0 3 0 C5.29633824 3.44450737 5.54016485 5.93812283 6 10 C3.38275905 7.63202009 1.67138271 5.10399646 0 2 C0 1.34 0 0.68 0 0 Z " fill="#C1AF8B" transform="translate(94,199)"/>
<path d="M0 0 C2.72426311 2.35277269 3.8141763 4.62496331 5 8 C2.525 7.01 2.525 7.01 0 6 C0 4.02 0 2.04 0 0 Z " fill="#B9A77F" transform="translate(130,192)"/>
<path d="M0 0 C3.39417765 3.12621626 5.6062718 5.56541027 7 10 C2.57320993 8.52440331 2.08567304 6.09942632 0 2 C0 1.34 0 0.68 0 0 Z " fill="#A28B5B" transform="translate(186,185)"/>
<path d="M0 0 C0.33 0 0.66 0 1 0 C1 1.98 1 3.96 1 6 C-0.65 6.66 -2.3 7.32 -4 8 C-2.66666667 5.33333333 -1.33333333 2.66666667 0 0 Z " fill="#CAB47E" transform="translate(349,166)"/>
<path d="M0 0 C3.465 1.98 3.465 1.98 7 4 C7 4.99 7 5.98 7 7 C4.525 6.01 4.525 6.01 2 5 C2 4.34 2 3.68 2 3 C1.34 2.67 0.68 2.34 0 2 C0 1.34 0 0.68 0 0 Z " fill="#C0AF86" transform="translate(165,134)"/>
<path d="M0 0 C3.63 0.66 7.26 1.32 11 2 C11 2.33 11 2.66 11 3 C6.71 3 2.42 3 -2 3 C-1.34 2.01 -0.68 1.02 0 0 Z " fill="#7D6331" transform="translate(34,359)"/>
<path d="M0 0 C2.88437779 1.29299694 4.87219421 2.65941363 7 5 C6.34 5.66 5.68 6.32 5 7 C1.67098753 4.78065836 1.24976756 3.65316671 0 0 Z " fill="#BBAA7F" transform="translate(221,323)"/>
<path d="M0 0 C1.485 0.99 1.485 0.99 3 2 C3.99 2 4.98 2 6 2 C6.33 2.66 6.66 3.32 7 4 C6.01 5.485 6.01 5.485 5 7 C3.29115995 5.37660195 1.62553283 3.70680947 0 2 C0 1.34 0 0.68 0 0 Z " fill="#B8A67B" transform="translate(163,311)"/>
<path d="M0 0 C1.875 0.1875 1.875 0.1875 4 1 C5.25 3.5625 5.25 3.5625 6 6 C3.5625 5.25 3.5625 5.25 1 4 C0.1875 1.875 0.1875 1.875 0 0 Z " fill="#AD976A" transform="translate(163,251)"/>
<path d="M0 0 C0.66 0 1.32 0 2 0 C3.52448631 2.9826906 4.93940067 5.818202 6 9 C4.125 8.4375 4.125 8.4375 2 7 C0.75 3.375 0.75 3.375 0 0 Z " fill="#977E4E" transform="translate(88,185)"/>
<path d="M0 0 C0.94875 0.04125 1.8975 0.0825 2.875 0.125 C0.18658141 2.37745881 -1.77141875 4.00713958 -5.125 5.125 C-5.125 0.85616396 -4.22482433 0.16899297 0 0 Z " fill="#D3C39B" transform="translate(300.125,149.875)"/>
<path d="M0 0 C6.15234375 0.5859375 6.15234375 0.5859375 8 1 C8.33 1.66 8.66 2.32 9 3 C5.7 2.67 2.4 2.34 -1 2 C-0.67 1.34 -0.34 0.68 0 0 Z " fill="#A99364" transform="translate(86,103)"/>
<path d="M0 0 C-2.55068845 2.35448165 -3.71017358 2.98327924 -7.25 3.1875 C-8.1575 3.125625 -9.065 3.06375 -10 3 C-7.29536552 -0.8183075 -4.37912428 -0.24787496 0 0 Z " fill="#D6C28F" transform="translate(380,100)"/>
<path d="M0 0 C0 0.66 0 1.32 0 2 C-2.97 2.66 -5.94 3.32 -9 4 C-7 1 -7 1 -5.0625 0.3125 C-3 0 -3 0 0 0 Z " fill="#A99161" transform="translate(324,357)"/>
<path d="M0 0 C1.32 0.33 2.64 0.66 4 1 C4.66 3.64 5.32 6.28 6 9 C2.91910327 6.22719294 1.31224548 3.93673644 0 0 Z " fill="#BDAD87" transform="translate(145,286)"/>
<path d="M0 0 C3.3 0.33 6.6 0.66 10 1 C10 1.66 10 2.32 10 3 C5.06071112 3.3367697 4.21507278 3.16130459 0 0 Z " fill="#A18651" transform="translate(236,261)"/>
<path d="M0 0 C1.5 1.125 1.5 1.125 3 3 C3.1875 6.1875 3.1875 6.1875 3 9 C1.5 7.875 1.5 7.875 0 6 C-0.1875 2.8125 -0.1875 2.8125 0 0 Z " fill="#B19D71" transform="translate(169,257)"/>
<path d="M0 0 C2.91227269 3.28804981 4.49701212 5.59885603 5 10 C2.66063182 7.87330165 1.19346152 5.93775144 0 3 C0 2.01 0 1.02 0 0 Z " fill="#A08854" transform="translate(193,195)"/>
<path d="M0 0 C0.66 0 1.32 0 2 0 C1.6875 2.375 1.6875 2.375 1 5 C0.01 5.66 -0.98 6.32 -2 7 C-2.33 6.01 -2.66 5.02 -3 4 C-1.6875 1.8125 -1.6875 1.8125 0 0 Z " fill="#C0AA7A" transform="translate(267,177)"/>
<path d="M0 0 C0.66 0.33 1.32 0.66 2 1 C0.68 3.31 -0.64 5.62 -2 8 C-2.66 8 -3.32 8 -4 8 C-3.50168276 4.31245243 -2.89932357 2.39509338 0 0 Z " fill="#C1AB78" transform="translate(369,170)"/>
<path d="M0 0 C1 3 1 3 0.1875 5.625 C-1 8 -1 8 -3 9 C-2.5020163 5.26512223 -2.12508244 3.18762365 0 0 Z " fill="#D0BD8C" transform="translate(353,161)"/>
<path d="M0 0 C-4.75 4 -4.75 4 -7 4 C-7.33 3.01 -7.66 2.02 -8 1 C-5.29120665 -0.35439668 -2.99066732 -0.06501451 0 0 Z " fill="#D0BF91" transform="translate(314,143)"/>
<path d="M0 0 C0.66 0.33 1.32 0.66 2 1 C-0.97 3.475 -0.97 3.475 -4 6 C-4.33 4.68 -4.66 3.36 -5 2 C-2.625 0.9375 -2.625 0.9375 0 0 Z " fill="#E0D0A3" transform="translate(381,131)"/>
<path d="M0 0 C3.71888239 0.50712033 6.73454239 1.11608215 10 3 C2.25 3.125 2.25 3.125 0 2 C0 1.34 0 0.68 0 0 Z " fill="#9D8450" transform="translate(91,124)"/>
<path d="M0 0 C0.66 0 1.32 0 2 0 C0.50163895 3.11198065 -1.19933758 6.0534615 -3 9 C-3.33 8.34 -3.66 7.68 -4 7 C-1.55555556 1.55555556 -1.55555556 1.55555556 0 0 Z " fill="#B59D67" transform="translate(191,64)"/>
<path d="M0 0 C0.66 0 1.32 0 2 0 C2.66 1.98 3.32 3.96 4 6 C2.35 6 0.7 6 -1 6 C-1 2 -1 2 0 0 Z " fill="#A08148" transform="translate(207,340)"/>
<path d="M0 0 C2.72426311 2.35277269 3.8141763 4.62496331 5 8 C2.525 7.01 2.525 7.01 0 6 C0 4.02 0 2.04 0 0 Z " fill="#C1B089" transform="translate(142,212)"/>
<path d="M0 0 C0.66 0.33 1.32 0.66 2 1 C-2.75 6.75 -2.75 6.75 -5 9 C-4.5206753 4.68607774 -3.2542015 2.83430453 0 0 Z " fill="#B09864" transform="translate(255,161)"/>
<path d="M0 0 C0.99 0.33 1.98 0.66 3 1 C1.35 2.32 -0.3 3.64 -2 5 C-2.33 4.34 -2.66 3.68 -3 3 C-2.01 2.01 -1.02 1.02 0 0 Z " fill="#CBB37C" transform="translate(376,162)"/>
<path d="M0 0 C-2.62198774 2.15377564 -4.64404172 3.40072174 -8 4 C-8.33 3.01 -8.66 2.02 -9 1 C-6.04335481 -0.4783226 -3.25770263 -0.06032783 0 0 Z " fill="#D6C599" transform="translate(322,139)"/>
<path d="M0 0 C0.33 0 0.66 0 1 0 C1 2.64 1 5.28 1 8 C0.01 8 -0.98 8 -2 8 C-1.125 1.125 -1.125 1.125 0 0 Z " fill="#CAB07B" transform="translate(277,108)"/>
<path d="M0 0 C1.5 1.125 1.5 1.125 3 3 C3.1875 6.1875 3.1875 6.1875 3 9 C1.5 7.875 1.5 7.875 0 6 C-0.1875 2.8125 -0.1875 2.8125 0 0 Z " fill="#D2C396" transform="translate(261,70)"/>
</svg>
